<?xml version="1.0" encoding="UTF-8" standalone="no"?><!DOCTYPE svg PUBLIC "-//W3C//DTD SVG 1.1//EN" "http://www.w3.org/Graphics/SVG/1.1/DTD/svg11.dtd"><!-- Generated by graphviz version 2.40.1 (20161225.0304)
 --><!-- Title: G Pages: 1 --><svg xmlns="http://www.w3.org/2000/svg" xmlns:xlink="http://www.w3.org/1999/xlink" width="1964pt" height="619pt" viewBox="0.00 0.00 1964.45 618.59">
<g id="graph0" class="graph" transform="scale(1 1) rotate(0) translate(4 614.5877)">
<title>G</title>
<polygon fill="#ffffff" stroke="transparent" points="-4,4 -4,-614.5877 1960.4537,-614.5877 1960.4537,4 -4,4"/>
<!-- CS 111 -->
<g id="node1" class="node">
<title>CS 111</title>
<polygon fill="none" stroke="#000000" points="343.4301,-420.727 286.1891,-420.727 286.1891,-379.5232 343.4301,-379.5232 343.4301,-420.727"/>
<text text-anchor="middle" x="314.8096" y="-404.3251" font-family="Times,serif" font-size="14.00" fill="#000000">CS 111</text>
<text text-anchor="middle" x="314.8096" y="-387.5251" font-family="Times,serif" font-size="14.00" fill="#000000">C</text>
</g>
<!-- CS 234 -->
<g id="node8" class="node">
<title>CS 234</title>
<polygon fill="none" stroke="#000000" points="343.4301,-334.5114 286.1891,-334.5114 286.1891,-293.3076 343.4301,-293.3076 343.4301,-334.5114"/>
<text text-anchor="middle" x="314.8096" y="-318.1095" font-family="Times,serif" font-size="14.00" fill="#000000">CS 234</text>
<text text-anchor="middle" x="314.8096" y="-301.3095" font-family="Times,serif" font-size="14.00" fill="#000000">C</text>
</g>
<!-- CS 111&#45;&gt;CS 234 -->
<g id="edge7" class="edge">
<title>CS 111-&gt;CS 234</title>
<path fill="none" stroke="#000000" d="M314.8096,-379.2547C314.8096,-368.8765 314.8096,-356.1303 314.8096,-344.6593"/>
<polygon fill="#000000" stroke="#000000" points="318.3097,-344.5877 314.8096,-334.5877 311.3097,-344.5877 318.3097,-344.5877"/>
</g>
<!-- CS 140 -->
<g id="node2" class="node">
<title>CS 140</title>
<polygon fill="none" stroke="#000000" points="992.4301,-506.9427 935.1891,-506.9427 935.1891,-465.7389 992.4301,-465.7389 992.4301,-506.9427"/>
<text text-anchor="middle" x="963.8096" y="-490.5408" font-family="Times,serif" font-size="14.00" fill="#000000">CS 140</text>
<text text-anchor="middle" x="963.8096" y="-473.7408" font-family="Times,serif" font-size="14.00" fill="#000000">C</text>
</g>
<!-- CS 150 -->
<g id="node6" class="node">
<title>CS 150</title>
<polygon fill="none" stroke="#000000" points="609.4301,-420.727 552.1891,-420.727 552.1891,-379.5232 609.4301,-379.5232 609.4301,-420.727"/>
<text text-anchor="middle" x="580.8096" y="-404.3251" font-family="Times,serif" font-size="14.00" fill="#000000">CS 150</text>
<text text-anchor="middle" x="580.8096" y="-387.5251" font-family="Times,serif" font-size="14.00" fill="#000000">C</text>
</g>
<!-- CS 140&#45;&gt;CS 150 -->
<g id="edge5" class="edge">
<title>CS 140-&gt;CS 150</title>
<path fill="none" stroke="#000000" stroke-dasharray="1,5" d="M935.0224,-479.8606C867.0105,-464.5507 696.3428,-426.1324 619.4424,-408.8216"/>
<polygon fill="#000000" stroke="#000000" points="620.1937,-405.4032 609.6692,-406.6216 618.6564,-412.2323 620.1937,-405.4032"/>
</g>
<!-- MATH 224 -->
<g id="node17" class="node">
<title>MATH 224</title>
<polygon fill="none" stroke="#000000" points="1033.2571,-420.727 894.3621,-420.727 894.3621,-379.5232 1033.2571,-379.5232 1033.2571,-420.727"/>
<text text-anchor="middle" x="963.8096" y="-404.3251" font-family="Times,serif" font-size="14.00" fill="#000000">MATH 224</text>
<text text-anchor="middle" x="963.8096" y="-387.5251" font-family="Times,serif" font-size="14.00" fill="#000000">Discrete Mathematics</text>
</g>
<!-- CS 140&#45;&gt;MATH 224 -->
<g id="edge44" class="edge">
<title>CS 140-&gt;MATH 224</title>
<path fill="none" stroke="#000000" stroke-dasharray="1,5" d="M963.8096,-465.4704C963.8096,-455.0921 963.8096,-442.3459 963.8096,-430.8749"/>
<polygon fill="#000000" stroke="#000000" points="967.3097,-430.8033 963.8096,-420.8033 960.3097,-430.8034 967.3097,-430.8033"/>
</g>
<!-- MATH 120 -->
<g id="node3" class="node">
<title>MATH 120</title>
<polygon fill="none" stroke="#000000" points="1108.5205,-601.774 1027.0987,-601.774 1027.0987,-560.5702 1108.5205,-560.5702 1108.5205,-601.774"/>
<text text-anchor="middle" x="1067.8096" y="-585.3721" font-family="Times,serif" font-size="14.00" fill="#000000">MATH 120</text>
<text text-anchor="middle" x="1067.8096" y="-568.5721" font-family="Times,serif" font-size="14.00" fill="#000000">C</text>
</g>
<!-- MATH 120&#45;&gt;CS 140 -->
<g id="edge1" class="edge">
<title>MATH 120-&gt;CS 140</title>
<path fill="none" stroke="#000000" stroke-dasharray="1,5" d="M1044.9864,-560.3609C1030.0848,-546.7731 1010.4568,-528.8755 994.2342,-514.0831"/>
<polygon fill="#000000" stroke="#000000" points="996.3272,-511.255 986.5796,-507.1034 991.6107,-516.4275 996.3272,-511.255"/>
</g>
<!-- STAT 244 -->
<g id="node12" class="node">
<title>STAT 244</title>
<polygon fill="none" stroke="#000000" points="1148.8056,-420.727 1072.8136,-420.727 1072.8136,-379.5232 1148.8056,-379.5232 1148.8056,-420.727"/>
<text text-anchor="middle" x="1110.8096" y="-404.3251" font-family="Times,serif" font-size="14.00" fill="#000000">STAT 244</text>
<text text-anchor="middle" x="1110.8096" y="-387.5251" font-family="Times,serif" font-size="14.00" fill="#000000">Statistics</text>
</g>
<!-- MATH 120&#45;&gt;STAT 244 -->
<g id="edge48" class="edge">
<title>MATH 120-&gt;STAT 244</title>
<path fill="none" stroke="#000000" stroke-dasharray="1,5" d="M1068.1859,-560.514C1069.1206,-535.5024 1072.2804,-492.329 1082.8096,-456.9251 1085.5193,-447.8139 1089.5926,-438.378 1093.7992,-429.8762"/>
<polygon fill="#000000" stroke="#000000" points="1097.0401,-431.2294 1098.5398,-420.7412 1090.8269,-428.0051 1097.0401,-431.2294"/>
</g>
<!-- MATH 120E -->
<g id="node4" class="node">
<title>MATH 120E</title>
<polygon fill="none" stroke="#000000" points="1009.073,-601.774 918.5462,-601.774 918.5462,-560.5702 1009.073,-560.5702 1009.073,-601.774"/>
<text text-anchor="middle" x="963.8096" y="-585.3721" font-family="Times,serif" font-size="14.00" fill="#000000">MATH 120E</text>
<text text-anchor="middle" x="963.8096" y="-568.5721" font-family="Times,serif" font-size="14.00" fill="#000000">C</text>
</g>
<!-- MATH 120E&#45;&gt;CS 140 -->
<g id="edge2" class="edge">
<title>MATH 120E-&gt;CS 140</title>
<path fill="none" stroke="#000000" stroke-dasharray="1,5" d="M958.0896,-560.1259C956.9862,-547.5159 956.7694,-531.2575 957.4389,-517.213"/>
<polygon fill="#000000" stroke="#000000" points="960.9466,-517.2136 958.1236,-507.0018 953.9623,-516.7452 960.9466,-517.2136"/>
</g>
<!-- MATH 120E&#45;&gt;CS 140 -->
<g id="edge4" class="edge">
<title>MATH 120E-&gt;CS 140</title>
<path fill="none" stroke="#000000" stroke-dasharray="1,5" d="M969.5296,-560.1259C970.633,-547.5159 970.8498,-531.2575 970.1803,-517.213"/>
<polygon fill="#000000" stroke="#000000" points="973.6569,-516.7452 969.4956,-507.0018 966.6726,-517.2136 973.6569,-516.7452"/>
</g>
<!-- MATH 120E&#45;&gt;STAT 244 -->
<g id="edge49" class="edge">
<title>MATH 120E-&gt;STAT 244</title>
<path fill="none" stroke="#000000" stroke-dasharray="1,5" d="M980.6724,-560.4037C1006.9643,-528.0222 1057.7896,-465.4251 1087.5472,-428.7753"/>
<polygon fill="#000000" stroke="#000000" points="1090.3315,-430.8988 1093.9177,-420.9294 1084.8972,-426.4865 1090.3315,-430.8988"/>
</g>
<!-- MATH 120I -->
<g id="node5" class="node">
<title>MATH 120I</title>
<polygon fill="none" stroke="#000000" points="901.1814,-601.774 814.4378,-601.774 814.4378,-560.5702 901.1814,-560.5702 901.1814,-601.774"/>
<text text-anchor="middle" x="857.8096" y="-585.3721" font-family="Times,serif" font-size="14.00" fill="#000000">MATH 120I</text>
<text text-anchor="middle" x="857.8096" y="-568.5721" font-family="Times,serif" font-size="14.00" fill="#000000">C</text>
</g>
<!-- MATH 120I&#45;&gt;CS 140 -->
<g id="edge3" class="edge">
<title>MATH 120I-&gt;CS 140</title>
<path fill="none" stroke="#000000" stroke-dasharray="1,5" d="M881.0717,-560.3609C896.2599,-546.7731 916.2654,-528.8755 932.7999,-514.0831"/>
<polygon fill="#000000" stroke="#000000" points="935.4825,-516.3794 940.6017,-507.1034 930.8153,-511.1624 935.4825,-516.3794"/>
</g>
<!-- MATH 120I&#45;&gt;STAT 244 -->
<g id="edge50" class="edge">
<title>MATH 120I-&gt;STAT 244</title>
<path fill="none" stroke="#000000" stroke-dasharray="1,5" d="M863.7538,-560.3666C872.704,-532.7426 892.2657,-484.2713 925.8096,-456.9251 927.1962,-455.7947 1008.6972,-431.0051 1063.0494,-414.5524"/>
<polygon fill="#000000" stroke="#000000" points="1064.299,-417.8311 1072.8567,-411.5849 1062.2716,-411.1311 1064.299,-417.8311"/>
</g>
<!-- CS 150&#45;&gt;CS 234 -->
<g id="edge8" class="edge">
<title>CS 150-&gt;CS 234</title>
<path fill="none" stroke="#000000" d="M552.0902,-390.8166C504.0324,-375.2402 407.2945,-343.8856 353.3631,-326.4054"/>
<polygon fill="#000000" stroke="#000000" points="354.4044,-323.0637 343.8124,-323.3099 352.246,-329.7227 354.4044,-323.0637"/>
</g>
<!-- CS 286 -->
<g id="node9" class="node">
<title>CS 286</title>
<polygon fill="none" stroke="#000000" points="609.4301,-334.5114 552.1891,-334.5114 552.1891,-293.3076 609.4301,-293.3076 609.4301,-334.5114"/>
<text text-anchor="middle" x="580.8096" y="-318.1095" font-family="Times,serif" font-size="14.00" fill="#000000">CS 286</text>
<text text-anchor="middle" x="580.8096" y="-301.3095" font-family="Times,serif" font-size="14.00" fill="#000000">C</text>
</g>
<!-- CS 150&#45;&gt;CS 286 -->
<g id="edge9" class="edge">
<title>CS 150-&gt;CS 286</title>
<path fill="none" stroke="#000000" stroke-dasharray="1,5" d="M580.8096,-379.2547C580.8096,-368.8765 580.8096,-356.1303 580.8096,-344.6593"/>
<polygon fill="#000000" stroke="#000000" points="584.3097,-344.5877 580.8096,-334.5877 577.3097,-344.5877 584.3097,-344.5877"/>
</g>
<!-- CS 325 -->
<g id="node14" class="node">
<title>CS 325</title>
<polygon fill="none" stroke="#000000" points="57.4301,-239.6801 .1891,-239.6801 .1891,-198.4763 57.4301,-198.4763 57.4301,-239.6801"/>
<text text-anchor="middle" x="28.8096" y="-223.2782" font-family="Times,serif" font-size="14.00" fill="#000000">CS 325</text>
<text text-anchor="middle" x="28.8096" y="-206.4782" font-family="Times,serif" font-size="14.00" fill="#000000">C</text>
</g>
<!-- CS 150&#45;&gt;CS 325 -->
<g id="edge14" class="edge">
<title>CS 150-&gt;CS 325</title>
<path fill="none" stroke="#000000" d="M552.1761,-397.0932C497.6175,-390.8115 375.4122,-374.3067 276.8096,-343.3251 179.1103,-312.6274 154.5696,-301.2735 66.8096,-248.4939 65.335,-247.607 63.8514,-246.6722 62.3697,-245.7027"/>
<polygon fill="#000000" stroke="#000000" points="64.1898,-242.7053 53.9822,-239.8669 60.1918,-248.4513 64.1898,-242.7053"/>
</g>
<!-- CS 340 -->
<g id="node16" class="node">
<title>CS 340</title>
<polygon fill="none" stroke="#000000" points="1082.4301,-334.5114 1025.1891,-334.5114 1025.1891,-293.3076 1082.4301,-293.3076 1082.4301,-334.5114"/>
<text text-anchor="middle" x="1053.8096" y="-318.1095" font-family="Times,serif" font-size="14.00" fill="#000000">CS 340</text>
<text text-anchor="middle" x="1053.8096" y="-301.3095" font-family="Times,serif" font-size="14.00" fill="#000000">C</text>
</g>
<!-- CS 150&#45;&gt;CS 340 -->
<g id="edge17" class="edge">
<title>CS 150-&gt;CS 340</title>
<path fill="none" stroke="#000000" d="M609.6858,-394.8617C691.0916,-380.0236 922.5079,-337.8424 1014.9582,-320.9911"/>
<polygon fill="#000000" stroke="#000000" points="1015.8012,-324.3952 1025.0115,-319.1586 1014.5459,-317.5087 1015.8012,-324.3952"/>
</g>
<!-- CS 434 -->
<g id="node24" class="node">
<title>CS 434</title>
<ellipse fill="none" stroke="#000000" cx="212.8096" cy="-219.0782" rx="137.4313" ry="29.3315"/>
<text text-anchor="middle" x="212.8096" y="-223.2782" font-family="Times,serif" font-size="14.00" fill="#000000">CS 434</text>
<text text-anchor="middle" x="212.8096" y="-206.4782" font-family="Times,serif" font-size="14.00" fill="#000000">Database Management Systems</text>
</g>
<!-- CS 150&#45;&gt;CS 434 -->
<g id="edge28" class="edge">
<title>CS 150-&gt;CS 434</title>
<path fill="none" stroke="#000000" d="M552.1645,-385.2237C509.103,-362.9079 425.0319,-319.6696 352.8096,-284.4939 329.3851,-273.085 303.5846,-260.9178 280.5822,-250.2095"/>
<polygon fill="#000000" stroke="#000000" points="281.7911,-246.9119 271.2474,-245.8723 278.8415,-253.2601 281.7911,-246.9119"/>
</g>
<!-- CS 482 -->
<g id="node30" class="node">
<title>CS 482</title>
<ellipse fill="none" stroke="#000000" cx="722.8096" cy="-219.0782" rx="89.2258" ry="29.3315"/>
<text text-anchor="middle" x="722.8096" y="-223.2782" font-family="Times,serif" font-size="14.00" fill="#000000">CS 482</text>
<text text-anchor="middle" x="722.8096" y="-206.4782" font-family="Times,serif" font-size="14.00" fill="#000000">Computer Graphics</text>
</g>
<!-- CS 150&#45;&gt;CS 482 -->
<g id="edge39" class="edge">
<title>CS 150-&gt;CS 482</title>
<path fill="none" stroke="#000000" d="M597.0988,-379.3568C620.7355,-349.2204 664.8989,-292.9131 694.0806,-255.7071"/>
<polygon fill="#000000" stroke="#000000" points="697.0117,-257.6412 700.4292,-247.6127 691.5037,-253.3212 697.0117,-257.6412"/>
</g>
<!-- CS 145 -->
<g id="node7" class="node">
<title>CS 145</title>
<polygon fill="none" stroke="#000000" points="609.4301,-506.9427 552.1891,-506.9427 552.1891,-465.7389 609.4301,-465.7389 609.4301,-506.9427"/>
<text text-anchor="middle" x="580.8096" y="-490.5408" font-family="Times,serif" font-size="14.00" fill="#000000">CS 145</text>
<text text-anchor="middle" x="580.8096" y="-473.7408" font-family="Times,serif" font-size="14.00" fill="#000000">C</text>
</g>
<!-- CS 145&#45;&gt;CS 150 -->
<g id="edge6" class="edge">
<title>CS 145-&gt;CS 150</title>
<path fill="none" stroke="#000000" stroke-dasharray="1,5" d="M580.8096,-465.4704C580.8096,-455.0921 580.8096,-442.3459 580.8096,-430.8749"/>
<polygon fill="#000000" stroke="#000000" points="584.3097,-430.8033 580.8096,-420.8033 577.3097,-430.8034 584.3097,-430.8033"/>
</g>
<!-- CS 321 -->
<g id="node11" class="node">
<title>CS 321</title>
<polygon fill="none" stroke="#000000" points="1610.4301,-239.6801 1553.1891,-239.6801 1553.1891,-198.4763 1610.4301,-198.4763 1610.4301,-239.6801"/>
<text text-anchor="middle" x="1581.8096" y="-223.2782" font-family="Times,serif" font-size="14.00" fill="#000000">CS 321</text>
<text text-anchor="middle" x="1581.8096" y="-206.4782" font-family="Times,serif" font-size="14.00" fill="#000000">C</text>
</g>
<!-- CS 234&#45;&gt;CS 321 -->
<g id="edge11" class="edge">
<title>CS 234-&gt;CS 321</title>
<path fill="none" stroke="#000000" d="M343.5129,-309.3405C386.6487,-302.6709 470.8134,-290.4201 542.8096,-284.4939 653.7286,-275.3638 1439.162,-286.3788 1543.8096,-248.4939 1546.212,-247.6241 1548.5835,-246.5415 1550.897,-245.3094"/>
<polygon fill="#000000" stroke="#000000" points="1552.8489,-248.2168 1559.4758,-239.9503 1549.1402,-242.28 1552.8489,-248.2168"/>
</g>
<!-- CS 234&#45;&gt;CS 325 -->
<g id="edge15" class="edge">
<title>CS 234-&gt;CS 325</title>
<path fill="none" stroke="#000000" d="M285.9827,-310.1307C238.3461,-303.0661 141.0844,-285.1381 66.8096,-248.4939 65.014,-247.608 63.221,-246.6296 61.446,-245.584"/>
<polygon fill="#000000" stroke="#000000" points="63.0738,-242.4661 52.7917,-239.9111 59.2363,-248.3205 63.0738,-242.4661"/>
</g>
<!-- CS 234&#45;&gt;CS 434 -->
<g id="edge29" class="edge">
<title>CS 234-&gt;CS 434</title>
<path fill="none" stroke="#000000" d="M292.4253,-293.0984C280.3521,-281.8737 265.1155,-267.708 251.2117,-254.7813"/>
<polygon fill="#000000" stroke="#000000" points="253.3599,-251.9996 243.653,-247.7539 248.5936,-257.1262 253.3599,-251.9996"/>
</g>
<!-- CS 314 -->
<g id="node10" class="node">
<title>CS 314</title>
<polygon fill="none" stroke="#000000" points="501.4301,-239.6801 444.1891,-239.6801 444.1891,-198.4763 501.4301,-198.4763 501.4301,-239.6801"/>
<text text-anchor="middle" x="472.8096" y="-223.2782" font-family="Times,serif" font-size="14.00" fill="#000000">CS 314</text>
<text text-anchor="middle" x="472.8096" y="-206.4782" font-family="Times,serif" font-size="14.00" fill="#000000">C</text>
</g>
<!-- CS 286&#45;&gt;CS 314 -->
<g id="edge10" class="edge">
<title>CS 286-&gt;CS 314</title>
<path fill="none" stroke="#000000" stroke-dasharray="1,5" d="M557.1085,-293.0984C541.6338,-279.5105 521.2509,-261.6129 504.4044,-246.8206"/>
<polygon fill="#000000" stroke="#000000" points="506.2791,-243.8089 496.4554,-239.8408 501.6604,-249.0689 506.2791,-243.8089"/>
</g>
<!-- CS 330 -->
<g id="node15" class="node">
<title>CS 330</title>
<polygon fill="none" stroke="#000000" points="577.4301,-239.6801 520.1891,-239.6801 520.1891,-198.4763 577.4301,-198.4763 577.4301,-239.6801"/>
<text text-anchor="middle" x="548.8096" y="-223.2782" font-family="Times,serif" font-size="14.00" fill="#000000">CS 330</text>
<text text-anchor="middle" x="548.8096" y="-206.4782" font-family="Times,serif" font-size="14.00" fill="#000000">C</text>
</g>
<!-- CS 286&#45;&gt;CS 330 -->
<g id="edge16" class="edge">
<title>CS 286-&gt;CS 330</title>
<path fill="none" stroke="#000000" stroke-dasharray="1,5" d="M573.7078,-292.8634C569.4109,-280.1297 563.8587,-263.6758 559.088,-249.538"/>
<polygon fill="#000000" stroke="#000000" points="562.2951,-248.0953 555.7815,-239.7392 555.6626,-250.3334 562.2951,-248.0953"/>
</g>
<!-- CS 382 -->
<g id="node20" class="node">
<title>CS 382</title>
<ellipse fill="none" stroke="#000000" cx="1602.8096" cy="-124.2469" rx="192.5036" ry="29.3315"/>
<text text-anchor="middle" x="1602.8096" y="-128.4469" font-family="Times,serif" font-size="14.00" fill="#000000">CS 382</text>
<text text-anchor="middle" x="1602.8096" y="-111.6469" font-family="Times,serif" font-size="14.00" fill="#000000">Game Design, Development, and Technology</text>
</g>
<!-- CS 286&#45;&gt;CS 382 -->
<g id="edge21" class="edge">
<title>CS 286-&gt;CS 382</title>
<path fill="none" stroke="#000000" d="M581.4648,-293.0951C583.6047,-264.5222 592.0996,-213.9354 624.8096,-189.6626 694.1248,-138.2264 1314.8878,-161.8916 1400.8096,-153.6626 1419.8979,-151.8344 1439.9412,-149.465 1459.6831,-146.8647"/>
<polygon fill="#000000" stroke="#000000" points="1460.2106,-150.3254 1469.6573,-145.5285 1459.2811,-143.3874 1460.2106,-150.3254"/>
</g>
<!-- CS 286&#45;&gt;CS 482 -->
<g id="edge37" class="edge">
<title>CS 286-&gt;CS 482</title>
<path fill="none" stroke="#000000" d="M609.5454,-294.719C628.2183,-282.2487 653.0234,-265.6833 674.6596,-251.234"/>
<polygon fill="#000000" stroke="#000000" points="676.7143,-254.0707 683.0865,-245.6063 672.8267,-248.2494 676.7143,-254.0707"/>
</g>
<!-- CS 425 -->
<g id="node23" class="node">
<title>CS 425</title>
<polygon fill="none" stroke="#000000" points="427.4301,-144.8488 370.1891,-144.8488 370.1891,-103.645 427.4301,-103.645 427.4301,-144.8488"/>
<text text-anchor="middle" x="398.8096" y="-128.4469" font-family="Times,serif" font-size="14.00" fill="#000000">CS 425</text>
<text text-anchor="middle" x="398.8096" y="-111.6469" font-family="Times,serif" font-size="14.00" fill="#000000">C</text>
</g>
<!-- CS 314&#45;&gt;CS 425 -->
<g id="edge25" class="edge">
<title>CS 314-&gt;CS 425</title>
<path fill="none" stroke="#000000" d="M456.3866,-198.0321C446.0643,-184.804 432.609,-167.5609 421.3016,-153.0705"/>
<polygon fill="#000000" stroke="#000000" points="423.8434,-150.6385 414.9321,-144.908 418.3248,-154.9449 423.8434,-150.6385"/>
</g>
<!-- CS 447 -->
<g id="node26" class="node">
<title>CS 447</title>
<ellipse fill="none" stroke="#000000" cx="1233.8096" cy="-124.2469" rx="157.6922" ry="29.3315"/>
<text text-anchor="middle" x="1233.8096" y="-128.4469" font-family="Times,serif" font-size="14.00" fill="#000000">CS 447</text>
<text text-anchor="middle" x="1233.8096" y="-111.6469" font-family="Times,serif" font-size="14.00" fill="#000000">Networks and Data Communications</text>
</g>
<!-- CS 314&#45;&gt;CS 447 -->
<g id="edge32" class="edge">
<title>CS 314-&gt;CS 447</title>
<path fill="none" stroke="#000000" stroke-dasharray="1,5" d="M495.2211,-198.413C500.0602,-194.9404 505.3674,-191.7811 510.8096,-189.6626 599.9612,-154.9575 844.5433,-162.425 939.8096,-153.6626 987.1607,-149.3073 1038.7686,-144.2492 1085.342,-139.5683"/>
<polygon fill="#000000" stroke="#000000" points="1085.9101,-143.0289 1095.509,-138.5445 1085.2086,-136.0641 1085.9101,-143.0289"/>
</g>
<!-- CS 321&#45;&gt;CS 382 -->
<g id="edge22" class="edge">
<title>CS 321-&gt;CS 382</title>
<path fill="none" stroke="#000000" d="M1586.4702,-198.0321C1588.6945,-187.9876 1591.4314,-175.6281 1594.0249,-163.9167"/>
<polygon fill="#000000" stroke="#000000" points="1597.5056,-164.3863 1596.2506,-153.8661 1590.6712,-162.8728 1597.5056,-164.3863"/>
</g>
<!-- STAT 244&#45;&gt;CS 321 -->
<g id="edge12" class="edge">
<title>STAT 244-&gt;CS 321</title>
<path fill="none" stroke="#000000" stroke-dasharray="1,5" d="M1107.3651,-379.0859C1104.3928,-352.8122 1103.9938,-308.4156 1129.8096,-284.4939 1197.5464,-221.7266 1457.8037,-282.1239 1543.8096,-248.4939 1546.1892,-247.5634 1548.5432,-246.4346 1550.8438,-245.1682"/>
<polygon fill="#000000" stroke="#000000" points="1552.8336,-248.0506 1559.393,-239.7305 1549.0768,-242.1442 1552.8336,-248.0506"/>
</g>
<!-- STAT 380 -->
<g id="node13" class="node">
<title>STAT 380</title>
<polygon fill="none" stroke="#000000" points="1610.8502,-334.5114 1446.769,-334.5114 1446.769,-293.3076 1610.8502,-293.3076 1610.8502,-334.5114"/>
<text text-anchor="middle" x="1528.8096" y="-318.1095" font-family="Times,serif" font-size="14.00" fill="#000000">STAT 380</text>
<text text-anchor="middle" x="1528.8096" y="-301.3095" font-family="Times,serif" font-size="14.00" fill="#000000">Statistics For Applications</text>
</g>
<!-- STAT 380&#45;&gt;CS 321 -->
<g id="edge13" class="edge">
<title>STAT 380-&gt;CS 321</title>
<path fill="none" stroke="#000000" stroke-dasharray="1,5" d="M1540.572,-292.8634C1547.8269,-279.8825 1557.2425,-263.0354 1565.2448,-248.7171"/>
<polygon fill="#000000" stroke="#000000" points="1568.439,-250.176 1570.2624,-239.7392 1562.3285,-246.7609 1568.439,-250.176"/>
</g>
<!-- CS 325&#45;&gt;CS 425 -->
<g id="edge26" class="edge">
<title>CS 325-&gt;CS 425</title>
<path fill="none" stroke="#000000" d="M52.251,-198.2854C56.8431,-195.0001 61.7969,-191.9412 66.8096,-189.6626 166.1046,-144.5265 296.0001,-130.4525 359.8821,-126.126"/>
<polygon fill="#000000" stroke="#000000" points="360.1619,-129.6154 369.9207,-125.4904 359.7195,-122.6294 360.1619,-129.6154"/>
</g>
<!-- CS 423 -->
<g id="node22" class="node">
<title>CS 423</title>
<ellipse fill="none" stroke="#000000" cx="548.8096" cy="-124.2469" rx="102.1537" ry="29.3315"/>
<text text-anchor="middle" x="548.8096" y="-128.4469" font-family="Times,serif" font-size="14.00" fill="#000000">CS 423</text>
<text text-anchor="middle" x="548.8096" y="-111.6469" font-family="Times,serif" font-size="14.00" fill="#000000">Compiler Construction</text>
</g>
<!-- CS 330&#45;&gt;CS 423 -->
<g id="edge23" class="edge">
<title>CS 330-&gt;CS 423</title>
<path fill="none" stroke="#000000" stroke-dasharray="1,5" d="M548.8096,-198.0321C548.8096,-187.9876 548.8096,-175.6281 548.8096,-163.9167"/>
<polygon fill="#000000" stroke="#000000" points="552.3097,-163.8661 548.8096,-153.8661 545.3097,-163.8662 552.3097,-163.8661"/>
</g>
<!-- CS 454 -->
<g id="node28" class="node">
<title>CS 454</title>
<ellipse fill="none" stroke="#000000" cx="825.8096" cy="-124.2469" rx="104.5897" ry="29.3315"/>
<text text-anchor="middle" x="825.8096" y="-128.4469" font-family="Times,serif" font-size="14.00" fill="#000000">CS 454</text>
<text text-anchor="middle" x="825.8096" y="-111.6469" font-family="Times,serif" font-size="14.00" fill="#000000">Theory of Computation</text>
</g>
<!-- CS 330&#45;&gt;CS 454 -->
<g id="edge34" class="edge">
<title>CS 330-&gt;CS 454</title>
<path fill="none" stroke="#000000" d="M576.2374,-198.3867C581.2523,-195.1703 586.5631,-192.1087 591.8096,-189.6626 635.3472,-169.3634 686.455,-154.1794 729.7825,-143.5765"/>
<polygon fill="#000000" stroke="#000000" points="730.8517,-146.9193 739.7586,-141.1819 729.2178,-140.1127 730.8517,-146.9193"/>
</g>
<!-- CS 340&#45;&gt;CS 425 -->
<g id="edge24" class="edge">
<title>CS 340-&gt;CS 425</title>
<path fill="none" stroke="#000000" d="M1024.9507,-304.4762C992.6165,-293.3262 939.1817,-273.1366 896.8096,-248.4939 859.8847,-227.0191 860.5374,-205.3571 820.8096,-189.6626 661.7956,-126.844 597.214,-215.4836 437.8096,-153.6626 435.3016,-152.6899 432.8164,-151.5067 430.3868,-150.18"/>
<polygon fill="#000000" stroke="#000000" points="432.2254,-147.2018 421.8909,-144.8678 428.5143,-153.1371 432.2254,-147.2018"/>
</g>
<!-- CS 438 -->
<g id="node25" class="node">
<title>CS 438</title>
<ellipse fill="none" stroke="#000000" cx="1437.8096" cy="-219.0782" rx="96.5941" ry="29.3315"/>
<text text-anchor="middle" x="1437.8096" y="-223.2782" font-family="Times,serif" font-size="14.00" fill="#000000">CS 438</text>
<text text-anchor="middle" x="1437.8096" y="-206.4782" font-family="Times,serif" font-size="14.00" fill="#000000">Artificial Intelligence</text>
</g>
<!-- CS 340&#45;&gt;CS 438 -->
<g id="edge30" class="edge">
<title>CS 340-&gt;CS 438</title>
<path fill="none" stroke="#000000" stroke-dasharray="1,5" d="M1080.0696,-293.2867C1085.3785,-289.9 1091.0924,-286.7616 1096.8096,-284.4939 1192.9869,-246.3453 1225.5549,-269.7747 1326.8096,-248.4939 1336.5401,-246.4488 1346.6923,-244.084 1356.7326,-241.6018"/>
<polygon fill="#000000" stroke="#000000" points="1357.8731,-244.924 1366.7157,-239.088 1356.1637,-238.1359 1357.8731,-244.924"/>
</g>
<!-- CS 340&#45;&gt;CS 447 -->
<g id="edge31" class="edge">
<title>CS 340-&gt;CS 447</title>
<path fill="none" stroke="#000000" d="M1080.5861,-293.1051C1085.7569,-289.8209 1091.289,-286.7654 1096.8096,-284.4939 1179.1195,-250.6257 1236.8101,-316.8534 1293.8096,-248.4939 1310.5544,-228.4118 1303.2922,-214.0297 1293.8096,-189.6626 1289.7446,-179.2169 1283.1461,-169.4262 1275.7818,-160.7616"/>
<polygon fill="#000000" stroke="#000000" points="1278.1685,-158.1836 1268.8542,-153.1344 1272.9868,-162.8901 1278.1685,-158.1836"/>
</g>
<!-- CS 456 -->
<g id="node29" class="node">
<title>CS 456</title>
<ellipse fill="none" stroke="#000000" cx="1057.8096" cy="-219.0782" rx="151.5623" ry="29.3315"/>
<text text-anchor="middle" x="1057.8096" y="-223.2782" font-family="Times,serif" font-size="14.00" fill="#000000">CS 456</text>
<text text-anchor="middle" x="1057.8096" y="-206.4782" font-family="Times,serif" font-size="14.00" fill="#000000">Design and Analysis of Algorithms</text>
</g>
<!-- CS 340&#45;&gt;CS 456 -->
<g id="edge36" class="edge">
<title>CS 340-&gt;CS 456</title>
<path fill="none" stroke="#000000" stroke-dasharray="1,5" d="M1054.6973,-292.8634C1055.121,-282.8189 1055.6423,-270.4594 1056.1363,-258.748"/>
<polygon fill="#000000" stroke="#000000" points="1059.6356,-258.836 1056.5603,-248.6974 1052.6418,-258.541 1059.6356,-258.836"/>
</g>
<!-- MATH 224&#45;&gt;CS 340 -->
<g id="edge18" class="edge">
<title>MATH 224-&gt;CS 340</title>
<path fill="none" stroke="#000000" d="M985.5961,-379.2547C997.4248,-367.9234 1012.2004,-353.7691 1024.9726,-341.534"/>
<polygon fill="#000000" stroke="#000000" points="1027.4236,-344.0328 1032.2237,-334.5877 1022.5813,-338.9779 1027.4236,-344.0328"/>
</g>
<!-- MATH 224&#45;&gt;CS 454 -->
<g id="edge35" class="edge">
<title>MATH 224-&gt;CS 454</title>
<path fill="none" stroke="#000000" d="M953.4372,-379.3894C930.4109,-333.3572 874.7271,-222.0388 845.1011,-162.8129"/>
<polygon fill="#000000" stroke="#000000" points="848.183,-161.1504 840.579,-153.7728 841.9226,-164.2821 848.183,-161.1504"/>
</g>
<!-- MATH 150 -->
<g id="node18" class="node">
<title>MATH 150</title>
<polygon fill="none" stroke="#000000" points="1311.5205,-506.9427 1230.0987,-506.9427 1230.0987,-465.7389 1311.5205,-465.7389 1311.5205,-506.9427"/>
<text text-anchor="middle" x="1270.8096" y="-490.5408" font-family="Times,serif" font-size="14.00" fill="#000000">MATH 150</text>
<text text-anchor="middle" x="1270.8096" y="-473.7408" font-family="Times,serif" font-size="14.00" fill="#000000">C</text>
</g>
<!-- MATH 150&#45;&gt;STAT 244 -->
<g id="edge53" class="edge">
<title>MATH 150-&gt;STAT 244</title>
<path fill="none" stroke="#000000" stroke-dasharray="1,5" d="M1232.4856,-465.69C1210.0238,-453.5865 1181.4805,-438.206 1157.6855,-425.3841"/>
<polygon fill="#000000" stroke="#000000" points="1159.2845,-422.27 1148.8209,-420.6074 1155.9639,-428.4323 1159.2845,-422.27"/>
</g>
<!-- MATH 150&#45;&gt;CS 340 -->
<g id="edge19" class="edge">
<title>MATH 150-&gt;CS 340</title>
<path fill="none" stroke="#000000" d="M1251.0819,-465.3356C1229.3486,-442.7676 1192.8201,-406.4878 1157.8096,-379.3251 1136.8165,-363.0378 1111.6296,-347.1126 1091.3006,-335.0534"/>
<polygon fill="#000000" stroke="#000000" points="1093.0208,-332.0048 1082.6241,-329.9651 1089.4796,-338.0431 1093.0208,-332.0048"/>
</g>
<!-- MATH 152 -->
<g id="node21" class="node">
<title>MATH 152</title>
<polygon fill="none" stroke="#000000" points="1360.5205,-420.727 1279.0987,-420.727 1279.0987,-379.5232 1360.5205,-379.5232 1360.5205,-420.727"/>
<text text-anchor="middle" x="1319.8096" y="-404.3251" font-family="Times,serif" font-size="14.00" fill="#000000">MATH 152</text>
<text text-anchor="middle" x="1319.8096" y="-387.5251" font-family="Times,serif" font-size="14.00" fill="#000000">C</text>
</g>
<!-- MATH 150&#45;&gt;MATH 152 -->
<g id="edge42" class="edge">
<title>MATH 150-&gt;MATH 152</title>
<path fill="none" stroke="#000000" stroke-dasharray="1,5" d="M1282.6711,-465.4704C1288.7501,-454.7744 1296.2585,-441.5633 1302.9298,-429.8251"/>
<polygon fill="#000000" stroke="#000000" points="1306.159,-431.2267 1308.0573,-420.8033 1300.0732,-427.7679 1306.159,-431.2267"/>
</g>
<!-- MATH 223 -->
<g id="node35" class="node">
<title>MATH 223</title>
<polygon fill="none" stroke="#000000" points="1649.5205,-420.727 1568.0987,-420.727 1568.0987,-379.5232 1649.5205,-379.5232 1649.5205,-420.727"/>
<text text-anchor="middle" x="1608.8096" y="-404.3251" font-family="Times,serif" font-size="14.00" fill="#000000">MATH 223</text>
<text text-anchor="middle" x="1608.8096" y="-387.5251" font-family="Times,serif" font-size="14.00" fill="#000000">C</text>
</g>
<!-- MATH 150&#45;&gt;MATH 223 -->
<g id="edge43" class="edge">
<title>MATH 150-&gt;MATH 223</title>
<path fill="none" stroke="#000000" stroke-dasharray="1,5" d="M1311.5803,-475.9412C1373.3733,-460.1793 1490.6512,-430.2645 1557.9409,-413.1005"/>
<polygon fill="#000000" stroke="#000000" points="1559.0697,-416.4247 1567.8943,-410.5616 1557.3395,-409.6419 1559.0697,-416.4247"/>
</g>
<!-- CS 360 -->
<g id="node19" class="node">
<title>CS 360</title>
<polygon fill="none" stroke="#000000" points="425.4301,-239.6801 368.1891,-239.6801 368.1891,-198.4763 425.4301,-198.4763 425.4301,-239.6801"/>
<text text-anchor="middle" x="396.8096" y="-223.2782" font-family="Times,serif" font-size="14.00" fill="#000000">CS 360</text>
<text text-anchor="middle" x="396.8096" y="-206.4782" font-family="Times,serif" font-size="14.00" fill="#000000">C</text>
</g>
<!-- CS 360&#45;&gt;CS 425 -->
<g id="edge27" class="edge">
<title>CS 360-&gt;CS 425</title>
<path fill="none" stroke="#000000" d="M397.2535,-198.0321C397.5194,-185.4221 397.8623,-169.1637 398.1585,-155.1192"/>
<polygon fill="#000000" stroke="#000000" points="401.6621,-154.9796 398.3739,-144.908 394.6637,-154.8319 401.6621,-154.9796"/>
</g>
<!-- MATH 152&#45;&gt;STAT 380 -->
<g id="edge54" class="edge">
<title>MATH 152-&gt;STAT 380</title>
<path fill="none" stroke="#000000" stroke-dasharray="1,5" d="M1360.6031,-383.2972C1391.4414,-370.576 1434.249,-352.9171 1468.9611,-338.5979"/>
<polygon fill="#000000" stroke="#000000" points="1470.6107,-341.7036 1478.5204,-334.6546 1467.9413,-335.2325 1470.6107,-341.7036"/>
</g>
<!-- MATH 152&#45;&gt;CS 382 -->
<g id="edge20" class="edge">
<title>MATH 152-&gt;CS 382</title>
<path fill="none" stroke="#000000" d="M1360.5975,-398.5978C1434.8274,-394.869 1587.3452,-382.5129 1619.8096,-343.3251 1661.7037,-292.7548 1639.57,-211.1367 1620.5735,-163.091"/>
<polygon fill="#000000" stroke="#000000" points="1623.7408,-161.5894 1616.714,-153.6601 1617.2623,-164.2407 1623.7408,-161.5894"/>
</g>
<!-- MATH 152&#45;&gt;CS 482 -->
<g id="edge38" class="edge">
<title>MATH 152-&gt;CS 482</title>
<path fill="none" stroke="#000000" d="M1278.8195,-395.3314C1219.7896,-387.7872 1107.8238,-371.0732 1015.8096,-343.3251 931.7023,-317.9616 839.0496,-276.1775 780.9087,-248.153"/>
<polygon fill="#000000" stroke="#000000" points="782.4058,-244.9892 771.8804,-243.778 779.3531,-251.2885 782.4058,-244.9892"/>
</g>
<!-- MATH 250 -->
<g id="node36" class="node">
<title>MATH 250</title>
<ellipse fill="none" stroke="#000000" cx="1196.8096" cy="-313.9095" rx="58.1356" ry="29.3315"/>
<text text-anchor="middle" x="1196.8096" y="-318.1095" font-family="Times,serif" font-size="14.00" fill="#000000">MATH 250</text>
<text text-anchor="middle" x="1196.8096" y="-301.3095" font-family="Times,serif" font-size="14.00" fill="#000000">Calculus III</text>
</g>
<!-- MATH 152&#45;&gt;MATH 250 -->
<g id="edge45" class="edge">
<title>MATH 152-&gt;MATH 250</title>
<path fill="none" stroke="#000000" stroke-dasharray="1,5" d="M1290.348,-379.4743C1275.2176,-368.8688 1256.4978,-355.7473 1239.7893,-344.0357"/>
<polygon fill="#000000" stroke="#000000" points="1241.4626,-340.9344 1231.2649,-338.0606 1237.4447,-346.6665 1241.4626,-340.9344"/>
</g>
<!-- MATH 321 -->
<g id="node37" class="node">
<title>MATH 321</title>
<ellipse fill="none" stroke="#000000" cx="1350.8096" cy="-313.9095" rx="77.0468" ry="29.3315"/>
<text text-anchor="middle" x="1350.8096" y="-318.1095" font-family="Times,serif" font-size="14.00" fill="#000000">MATH 321</text>
<text text-anchor="middle" x="1350.8096" y="-301.3095" font-family="Times,serif" font-size="14.00" fill="#000000">Linear Algebra I</text>
</g>
<!-- MATH 152&#45;&gt;MATH 321 -->
<g id="edge46" class="edge">
<title>MATH 152-&gt;MATH 321</title>
<path fill="none" stroke="#000000" stroke-dasharray="1,5" d="M1327.3138,-379.2547C1330.2131,-371.1915 1333.6263,-361.6989 1336.9391,-352.4855"/>
<polygon fill="#000000" stroke="#000000" points="1340.2392,-353.6513 1340.3293,-343.0568 1333.6521,-351.2828 1340.2392,-353.6513"/>
</g>
<!-- CS 499 -->
<g id="node33" class="node">
<title>CS 499</title>
<ellipse fill="none" stroke="#000000" cx="398.8096" cy="-29.4156" rx="173.5727" ry="29.3315"/>
<text text-anchor="middle" x="398.8096" y="-33.6156" font-family="Times,serif" font-size="14.00" fill="#000000">CS 499</text>
<text text-anchor="middle" x="398.8096" y="-16.8156" font-family="Times,serif" font-size="14.00" fill="#000000">Senior Project: Software Implementation</text>
</g>
<!-- CS 425&#45;&gt;CS 499 -->
<g id="edge40" class="edge">
<title>CS 425-&gt;CS 499</title>
<path fill="none" stroke="#000000" stroke-dasharray="1,5" d="M398.8096,-103.2008C398.8096,-93.1563 398.8096,-80.7969 398.8096,-69.0854"/>
<polygon fill="#000000" stroke="#000000" points="402.3097,-69.0348 398.8096,-59.0348 395.3097,-69.0349 402.3097,-69.0348"/>
</g>
<!-- CS 414 -->
<g id="node27" class="node">
<title>CS 414</title>
<polygon fill="none" stroke="#000000" points="1284.4301,-239.6801 1227.1891,-239.6801 1227.1891,-198.4763 1284.4301,-198.4763 1284.4301,-239.6801"/>
<text text-anchor="middle" x="1255.8096" y="-223.2782" font-family="Times,serif" font-size="14.00" fill="#000000">CS 414</text>
<text text-anchor="middle" x="1255.8096" y="-206.4782" font-family="Times,serif" font-size="14.00" fill="#000000">C</text>
</g>
<!-- CS 414&#45;&gt;CS 447 -->
<g id="edge33" class="edge">
<title>CS 414-&gt;CS 447</title>
<path fill="none" stroke="#000000" stroke-dasharray="1,5" d="M1250.9271,-198.0321C1248.5969,-187.9876 1245.7296,-175.6281 1243.0126,-163.9167"/>
<polygon fill="#000000" stroke="#000000" points="1246.3504,-162.8164 1240.681,-153.8661 1239.5315,-164.3984 1246.3504,-162.8164"/>
</g>
<!-- CS 490 -->
<g id="node31" class="node">
<title>CS 490</title>
<ellipse fill="none" stroke="#000000" cx="1418.8096" cy="-581.1721" rx="123.5127" ry="29.3315"/>
<text text-anchor="middle" x="1418.8096" y="-585.3721" font-family="Times,serif" font-size="14.00" fill="#000000">CS 490</text>
<text text-anchor="middle" x="1418.8096" y="-568.5721" font-family="Times,serif" font-size="14.00" fill="#000000">Topics in Computer Science</text>
</g>
<!-- CS 495 -->
<g id="node32" class="node">
<title>CS 495</title>
<ellipse fill="none" stroke="#000000" cx="1646.8096" cy="-581.1721" rx="85.6409" ry="29.3315"/>
<text text-anchor="middle" x="1646.8096" y="-585.3721" font-family="Times,serif" font-size="14.00" fill="#000000">CS 495</text>
<text text-anchor="middle" x="1646.8096" y="-568.5721" font-family="Times,serif" font-size="14.00" fill="#000000">Independent Study</text>
</g>
<!-- MATH 125 -->
<g id="node34" class="node">
<title>MATH 125</title>
<polygon fill="none" stroke="#000000" points="1276.5205,-601.774 1195.0987,-601.774 1195.0987,-560.5702 1276.5205,-560.5702 1276.5205,-601.774"/>
<text text-anchor="middle" x="1235.8096" y="-585.3721" font-family="Times,serif" font-size="14.00" fill="#000000">MATH 125</text>
<text text-anchor="middle" x="1235.8096" y="-568.5721" font-family="Times,serif" font-size="14.00" fill="#000000">C</text>
</g>
<!-- MATH 125&#45;&gt;STAT 244 -->
<g id="edge51" class="edge">
<title>MATH 125-&gt;STAT 244</title>
<path fill="none" stroke="#000000" stroke-dasharray="1,5" d="M1230.3515,-560.1671C1222.8181,-534.0363 1207.3177,-488.9618 1182.8096,-456.9251 1174.3299,-445.8406 1163.2157,-435.6875 1152.2654,-427.1276"/>
<polygon fill="#000000" stroke="#000000" points="1154.0693,-424.1054 1143.9699,-420.9033 1149.8681,-429.7046 1154.0693,-424.1054"/>
</g>
<!-- MATH 125&#45;&gt;MATH 150 -->
<g id="edge41" class="edge">
<title>MATH 125-&gt;MATH 150</title>
<path fill="none" stroke="#000000" stroke-dasharray="1,5" d="M1243.5772,-560.1259C1248.3225,-547.2687 1254.4677,-530.6185 1259.7193,-516.3895"/>
<polygon fill="#000000" stroke="#000000" points="1263.0051,-517.5951 1263.1841,-507.0018 1256.4381,-515.1714 1263.0051,-517.5951"/>
</g>
<!-- MATH 423 -->
<g id="node38" class="node">
<title>MATH 423</title>
<ellipse fill="none" stroke="#000000" cx="1811.8096" cy="-313.9095" rx="144.7883" ry="29.3315"/>
<text text-anchor="middle" x="1811.8096" y="-318.1095" font-family="Times,serif" font-size="14.00" fill="#000000">MATH 423</text>
<text text-anchor="middle" x="1811.8096" y="-301.3095" font-family="Times,serif" font-size="14.00" fill="#000000">Combinatorics and Graph Theory</text>
</g>
<!-- MATH 223&#45;&gt;MATH 423 -->
<g id="edge47" class="edge">
<title>MATH 223-&gt;MATH 423</title>
<path fill="none" stroke="#000000" stroke-dasharray="1,5" d="M1649.8897,-382.6781C1675.7179,-371.7087 1709.7527,-357.2538 1739.9506,-344.4285"/>
<polygon fill="#000000" stroke="#000000" points="1741.3498,-347.6369 1749.1859,-340.5063 1738.6134,-341.1939 1741.3498,-347.6369"/>
</g>
<!-- MATH 145 -->
<g id="node39" class="node">
<title>MATH 145</title>
<polygon fill="none" stroke="#000000" points="1173.5205,-506.9427 1092.0987,-506.9427 1092.0987,-465.7389 1173.5205,-465.7389 1173.5205,-506.9427"/>
<text text-anchor="middle" x="1132.8096" y="-490.5408" font-family="Times,serif" font-size="14.00" fill="#000000">MATH 145</text>
<text text-anchor="middle" x="1132.8096" y="-473.7408" font-family="Times,serif" font-size="14.00" fill="#000000">C</text>
</g>
<!-- MATH 145&#45;&gt;STAT 244 -->
<g id="edge52" class="edge">
<title>MATH 145-&gt;STAT 244</title>
<path fill="none" stroke="#000000" stroke-dasharray="1,5" d="M1127.484,-465.4704C1124.8087,-454.9862 1121.5168,-442.0855 1118.5666,-430.5242"/>
<polygon fill="#000000" stroke="#000000" points="1121.9501,-429.6275 1116.0861,-420.8033 1115.1674,-431.3583 1121.9501,-429.6275"/>
</g>
<!-- BIOL 150 -->
<g id="node40" class="node">
<title>BIOL 150</title>
<ellipse fill="none" stroke="#000000" cx="1795.8096" cy="-486.3408" rx="157.0448" ry="29.3315"/>
<text text-anchor="middle" x="1795.8096" y="-490.5408" font-family="Times,serif" font-size="14.00" fill="#000000">BIOL 150</text>
<text text-anchor="middle" x="1795.8096" y="-473.7408" font-family="Times,serif" font-size="14.00" fill="#000000">Introduction to Biological Sciences I</text>
</g>
<!-- CHEM 121A -->
<g id="node41" class="node">
<title>CHEM 121A</title>
<polygon fill="none" stroke="#000000" points="1841.3566,-601.774 1750.2626,-601.774 1750.2626,-560.5702 1841.3566,-560.5702 1841.3566,-601.774"/>
<text text-anchor="middle" x="1795.8096" y="-585.3721" font-family="Times,serif" font-size="14.00" fill="#000000">CHEM 121A</text>
<text text-anchor="middle" x="1795.8096" y="-568.5721" font-family="Times,serif" font-size="14.00" fill="#000000">C</text>
</g>
<!-- CHEM 121A&#45;&gt;BIOL 150 -->
<g id="edge55" class="edge">
<title>CHEM 121A-&gt;BIOL 150</title>
<path fill="none" stroke="#000000" stroke-dasharray="1,5" d="M1795.8096,-560.1259C1795.8096,-550.0814 1795.8096,-537.722 1795.8096,-526.0106"/>
<polygon fill="#000000" stroke="#000000" points="1799.3097,-525.9599 1795.8096,-515.96 1792.3097,-525.96 1799.3097,-525.9599"/>
</g>
</g>
</svg>