<?xml version="1.0" encoding="UTF-8" standalone="no"?><!DOCTYPE svg PUBLIC "-//W3C//DTD SVG 1.1//EN" "http://www.w3.org/Graphics/SVG/1.1/DTD/svg11.dtd"><!-- Generated by graphviz version 2.40.1 (20161225.0304)
 --><!-- Title: G Pages: 1 --><svg xmlns="http://www.w3.org/2000/svg" xmlns:xlink="http://www.w3.org/1999/xlink" width="1747pt" height="679pt" viewBox="0.00 0.00 1746.66 678.96">
<g id="graph0" class="graph" transform="scale(1 1) rotate(0) translate(4 674.9564)">
<title>G</title>
<polygon fill="#ffffff" stroke="transparent" points="-4,4 -4,-674.9564 1742.6556,-674.9564 1742.6556,4 -4,4"/>
<!-- CS 111 -->
<g id="node1" class="node">
<title>CS 111</title>
<polygon fill="none" stroke="#000000" points="251.4301,-403.4958 194.1891,-403.4958 194.1891,-362.2919 251.4301,-362.2919 251.4301,-403.4958"/>
<text text-anchor="middle" x="222.8096" y="-387.0939" font-family="Times,serif" font-size="14.00" fill="#000000">CS 111</text>
<text text-anchor="middle" x="222.8096" y="-370.2939" font-family="Times,serif" font-size="14.00" fill="#000000">C</text>
</g>
<!-- CS 234 -->
<g id="node8" class="node">
<title>CS 234</title>
<polygon fill="none" stroke="#000000" points="251.4301,-325.8958 194.1891,-325.8958 194.1891,-284.6919 251.4301,-284.6919 251.4301,-325.8958"/>
<text text-anchor="middle" x="222.8096" y="-309.4939" font-family="Times,serif" font-size="14.00" fill="#000000">CS 234</text>
<text text-anchor="middle" x="222.8096" y="-292.6939" font-family="Times,serif" font-size="14.00" fill="#000000">C</text>
</g>
<!-- CS 111&#45;&gt;CS 234 -->
<g id="edge7" class="edge">
<title>CS 111-&gt;CS 234</title>
<path fill="none" stroke="#000000" d="M222.8096,-362.0985C222.8096,-354.183 222.8096,-344.9829 222.8096,-336.3217"/>
<polygon fill="#000000" stroke="#000000" points="226.3097,-336.1466 222.8096,-326.1466 219.3097,-336.1467 226.3097,-336.1466"/>
</g>
<!-- CS 140 -->
<g id="node2" class="node">
<title>CS 140</title>
<polygon fill="none" stroke="#000000" points="737.4301,-489.7114 680.1891,-489.7114 680.1891,-448.5076 737.4301,-448.5076 737.4301,-489.7114"/>
<text text-anchor="middle" x="708.8096" y="-473.3095" font-family="Times,serif" font-size="14.00" fill="#000000">CS 140</text>
<text text-anchor="middle" x="708.8096" y="-456.5095" font-family="Times,serif" font-size="14.00" fill="#000000">C</text>
</g>
<!-- CS 150 -->
<g id="node6" class="node">
<title>CS 150</title>
<polygon fill="none" stroke="#000000" points="619.4301,-403.4958 562.1891,-403.4958 562.1891,-362.2919 619.4301,-362.2919 619.4301,-403.4958"/>
<text text-anchor="middle" x="590.8096" y="-387.0939" font-family="Times,serif" font-size="14.00" fill="#000000">CS 150</text>
<text text-anchor="middle" x="590.8096" y="-370.2939" font-family="Times,serif" font-size="14.00" fill="#000000">C</text>
</g>
<!-- CS 140&#45;&gt;CS 150 -->
<g id="edge5" class="edge">
<title>CS 140-&gt;CS 150</title>
<path fill="none" stroke="#000000" stroke-dasharray="1,5" d="M680.5457,-448.4587C664.6081,-436.8141 644.5191,-422.1362 627.3911,-409.6218"/>
<polygon fill="#000000" stroke="#000000" points="629.3911,-406.7484 619.2519,-403.675 625.2615,-412.4005 629.3911,-406.7484"/>
</g>
<!-- MATH 224 -->
<g id="node17" class="node">
<title>MATH 224</title>
<polygon fill="none" stroke="#000000" points="868.2571,-403.4958 729.3621,-403.4958 729.3621,-362.2919 868.2571,-362.2919 868.2571,-403.4958"/>
<text text-anchor="middle" x="798.8096" y="-387.0939" font-family="Times,serif" font-size="14.00" fill="#000000">MATH 224</text>
<text text-anchor="middle" x="798.8096" y="-370.2939" font-family="Times,serif" font-size="14.00" fill="#000000">Discrete Mathematics</text>
</g>
<!-- CS 140&#45;&gt;MATH 224 -->
<g id="edge43" class="edge">
<title>CS 140-&gt;MATH 224</title>
<path fill="none" stroke="#000000" stroke-dasharray="1,5" d="M730.5961,-448.2391C742.4248,-436.9078 757.2004,-422.7535 769.9726,-410.5183"/>
<polygon fill="#000000" stroke="#000000" points="772.4236,-413.0172 777.2237,-403.5721 767.5813,-407.9623 772.4236,-413.0172"/>
</g>
<!-- MATH 120 -->
<g id="node3" class="node">
<title>MATH 120</title>
<polygon fill="none" stroke="#000000" points="579.5205,-575.927 498.0987,-575.927 498.0987,-534.7232 579.5205,-534.7232 579.5205,-575.927"/>
<text text-anchor="middle" x="538.8096" y="-559.5251" font-family="Times,serif" font-size="14.00" fill="#000000">MATH 120</text>
<text text-anchor="middle" x="538.8096" y="-542.7251" font-family="Times,serif" font-size="14.00" fill="#000000">C</text>
</g>
<!-- MATH 120&#45;&gt;CS 140 -->
<g id="edge1" class="edge">
<title>MATH 120-&gt;CS 140</title>
<path fill="none" stroke="#000000" stroke-dasharray="1,5" d="M579.5288,-534.6743C607.2953,-520.5926 643.8081,-502.0751 670.9462,-488.3119"/>
<polygon fill="#000000" stroke="#000000" points="672.7891,-491.3018 680.1246,-483.6571 669.6229,-485.0587 672.7891,-491.3018"/>
</g>
<!-- STAT 244 -->
<g id="node12" class="node">
<title>STAT 244</title>
<polygon fill="none" stroke="#000000" points="547.8056,-489.7114 471.8136,-489.7114 471.8136,-448.5076 547.8056,-448.5076 547.8056,-489.7114"/>
<text text-anchor="middle" x="509.8096" y="-473.3095" font-family="Times,serif" font-size="14.00" fill="#000000">STAT 244</text>
<text text-anchor="middle" x="509.8096" y="-456.5095" font-family="Times,serif" font-size="14.00" fill="#000000">Statistics</text>
</g>
<!-- MATH 120&#45;&gt;STAT 244 -->
<g id="edge44" class="edge">
<title>MATH 120-&gt;STAT 244</title>
<path fill="none" stroke="#000000" stroke-dasharray="1,5" d="M531.7895,-534.4547C528.263,-523.9706 523.9236,-511.0699 520.0348,-499.5085"/>
<polygon fill="#000000" stroke="#000000" points="523.2706,-498.15 516.765,-489.7877 516.6359,-500.3818 523.2706,-498.15"/>
</g>
<!-- MATH 120E -->
<g id="node4" class="node">
<title>MATH 120E</title>
<polygon fill="none" stroke="#000000" points="792.073,-575.927 701.5462,-575.927 701.5462,-534.7232 792.073,-534.7232 792.073,-575.927"/>
<text text-anchor="middle" x="746.8096" y="-559.5251" font-family="Times,serif" font-size="14.00" fill="#000000">MATH 120E</text>
<text text-anchor="middle" x="746.8096" y="-542.7251" font-family="Times,serif" font-size="14.00" fill="#000000">C</text>
</g>
<!-- MATH 120E&#45;&gt;CS 140 -->
<g id="edge2" class="edge">
<title>MATH 120E-&gt;CS 140</title>
<path fill="none" stroke="#000000" stroke-dasharray="1,5" d="M731.7326,-534.4547C726.1526,-523.8647 720.202,-510.809 715.5871,-499.1586"/>
<polygon fill="#000000" stroke="#000000" points="718.8588,-497.9151 712.0621,-489.7877 712.307,-500.3797 718.8588,-497.9151"/>
</g>
<!-- MATH 120E&#45;&gt;CS 140 -->
<g id="edge4" class="edge">
<title>MATH 120E-&gt;CS 140</title>
<path fill="none" stroke="#000000" stroke-dasharray="1,5" d="M743.4891,-534.4547C739.6963,-523.7588 734.0644,-510.5477 728.351,-498.8095"/>
<polygon fill="#000000" stroke="#000000" points="731.4237,-497.1297 723.7852,-489.7877 725.178,-500.2906 731.4237,-497.1297"/>
</g>
<!-- MATH 120E&#45;&gt;STAT 244 -->
<g id="edge45" class="edge">
<title>MATH 120E-&gt;STAT 244</title>
<path fill="none" stroke="#000000" stroke-dasharray="1,5" d="M701.5645,-537.4864C698.6137,-536.4505 695.6769,-535.4538 692.8096,-534.5251 633.3255,-515.2593 614.1787,-523.3911 556.8096,-498.5251 554.16,-497.3767 551.4859,-496.0934 548.8295,-494.7228"/>
<polygon fill="#000000" stroke="#000000" points="550.3712,-491.5757 539.9272,-489.7945 546.9809,-497.7 550.3712,-491.5757"/>
</g>
<!-- MATH 120I -->
<g id="node5" class="node">
<title>MATH 120I</title>
<polygon fill="none" stroke="#000000" points="684.1814,-575.927 597.4378,-575.927 597.4378,-534.7232 684.1814,-534.7232 684.1814,-575.927"/>
<text text-anchor="middle" x="640.8096" y="-559.5251" font-family="Times,serif" font-size="14.00" fill="#000000">MATH 120I</text>
<text text-anchor="middle" x="640.8096" y="-542.7251" font-family="Times,serif" font-size="14.00" fill="#000000">C</text>
</g>
<!-- MATH 120I&#45;&gt;CS 140 -->
<g id="edge3" class="edge">
<title>MATH 120I-&gt;CS 140</title>
<path fill="none" stroke="#000000" stroke-dasharray="1,5" d="M657.2705,-534.4547C665.9572,-523.4411 676.7472,-509.7606 686.2064,-497.7675"/>
<polygon fill="#000000" stroke="#000000" points="689.0556,-499.8069 692.5003,-489.7877 683.5593,-495.4719 689.0556,-499.8069"/>
</g>
<!-- MATH 120I&#45;&gt;STAT 244 -->
<g id="edge46" class="edge">
<title>MATH 120I-&gt;STAT 244</title>
<path fill="none" stroke="#000000" stroke-dasharray="1,5" d="M609.4318,-534.6743C591.5776,-522.9238 569.0303,-508.0847 549.9035,-495.4967"/>
<polygon fill="#000000" stroke="#000000" points="551.6628,-492.4646 541.3854,-489.8906 547.8145,-498.3118 551.6628,-492.4646"/>
</g>
<!-- CS 150&#45;&gt;CS 234 -->
<g id="edge8" class="edge">
<title>CS 150-&gt;CS 234</title>
<path fill="none" stroke="#000000" d="M561.9333,-376.8047C496.2315,-362.9502 335.5351,-329.0642 261.4167,-313.4349"/>
<polygon fill="#000000" stroke="#000000" points="262.0588,-309.9934 251.5518,-311.3547 260.6144,-316.8428 262.0588,-309.9934"/>
</g>
<!-- CS 286 -->
<g id="node9" class="node">
<title>CS 286</title>
<polygon fill="none" stroke="#000000" points="716.4301,-325.8958 659.1891,-325.8958 659.1891,-284.6919 716.4301,-284.6919 716.4301,-325.8958"/>
<text text-anchor="middle" x="687.8096" y="-309.4939" font-family="Times,serif" font-size="14.00" fill="#000000">CS 286</text>
<text text-anchor="middle" x="687.8096" y="-292.6939" font-family="Times,serif" font-size="14.00" fill="#000000">C</text>
</g>
<!-- CS 150&#45;&gt;CS 286 -->
<g id="edge9" class="edge">
<title>CS 150-&gt;CS 286</title>
<path fill="none" stroke="#000000" stroke-dasharray="1,5" d="M616.8038,-362.0985C628.1117,-353.0522 641.5167,-342.3281 653.6169,-332.648"/>
<polygon fill="#000000" stroke="#000000" points="656.1214,-335.1267 661.7436,-326.1466 651.7485,-329.6606 656.1214,-335.1267"/>
</g>
<!-- CS 325 -->
<g id="node14" class="node">
<title>CS 325</title>
<polygon fill="none" stroke="#000000" points="425.4301,-239.6801 368.1891,-239.6801 368.1891,-198.4763 425.4301,-198.4763 425.4301,-239.6801"/>
<text text-anchor="middle" x="396.8096" y="-223.2782" font-family="Times,serif" font-size="14.00" fill="#000000">CS 325</text>
<text text-anchor="middle" x="396.8096" y="-206.4782" font-family="Times,serif" font-size="14.00" fill="#000000">C</text>
</g>
<!-- CS 150&#45;&gt;CS 325 -->
<g id="edge14" class="edge">
<title>CS 150-&gt;CS 325</title>
<path fill="none" stroke="#000000" d="M562.0271,-378.2608C530.017,-371.745 478.5193,-357.0202 445.8096,-326.0939 424.0802,-305.5492 411.1816,-273.5218 404.1183,-249.8539"/>
<polygon fill="#000000" stroke="#000000" points="407.4163,-248.6506 401.3563,-239.96 400.6741,-250.5329 407.4163,-248.6506"/>
</g>
<!-- CS 340 -->
<g id="node16" class="node">
<title>CS 340</title>
<polygon fill="none" stroke="#000000" points="1020.4301,-325.8958 963.1891,-325.8958 963.1891,-284.6919 1020.4301,-284.6919 1020.4301,-325.8958"/>
<text text-anchor="middle" x="991.8096" y="-309.4939" font-family="Times,serif" font-size="14.00" fill="#000000">CS 340</text>
<text text-anchor="middle" x="991.8096" y="-292.6939" font-family="Times,serif" font-size="14.00" fill="#000000">C</text>
</g>
<!-- CS 150&#45;&gt;CS 340 -->
<g id="edge17" class="edge">
<title>CS 150-&gt;CS 340</title>
<path fill="none" stroke="#000000" d="M619.6485,-377.3131C690.371,-363.6271 872.4799,-328.3861 952.7819,-312.8463"/>
<polygon fill="#000000" stroke="#000000" points="953.8103,-316.2124 962.9631,-310.8761 952.4803,-309.3399 953.8103,-316.2124"/>
</g>
<!-- CS 434 -->
<g id="node24" class="node">
<title>CS 434</title>
<ellipse fill="none" stroke="#000000" cx="212.8096" cy="-219.0782" rx="137.4313" ry="29.3315"/>
<text text-anchor="middle" x="212.8096" y="-223.2782" font-family="Times,serif" font-size="14.00" fill="#000000">CS 434</text>
<text text-anchor="middle" x="212.8096" y="-206.4782" font-family="Times,serif" font-size="14.00" fill="#000000">Database Management Systems</text>
</g>
<!-- CS 150&#45;&gt;CS 434 -->
<g id="edge28" class="edge">
<title>CS 150-&gt;CS 434</title>
<path fill="none" stroke="#000000" d="M561.9023,-375.247C526.5638,-365.518 465.2381,-347.3957 414.8096,-326.0939 363.657,-304.4861 308.078,-274.5301 268.1915,-251.8061"/>
<polygon fill="#000000" stroke="#000000" points="269.8364,-248.7148 259.4196,-246.781 266.3569,-254.7888 269.8364,-248.7148"/>
</g>
<!-- CS 482 -->
<g id="node30" class="node">
<title>CS 482</title>
<ellipse fill="none" stroke="#000000" cx="570.8096" cy="-219.0782" rx="89.2258" ry="29.3315"/>
<text text-anchor="middle" x="570.8096" y="-223.2782" font-family="Times,serif" font-size="14.00" fill="#000000">CS 482</text>
<text text-anchor="middle" x="570.8096" y="-206.4782" font-family="Times,serif" font-size="14.00" fill="#000000">Computer Graphics</text>
</g>
<!-- CS 150&#45;&gt;CS 482 -->
<g id="edge39" class="edge">
<title>CS 150-&gt;CS 482</title>
<path fill="none" stroke="#000000" d="M588.2766,-362.1465C585.1087,-336.199 579.6181,-291.2264 575.6369,-258.6173"/>
<polygon fill="#000000" stroke="#000000" points="579.0883,-258.0062 574.4022,-248.5041 572.1399,-258.8545 579.0883,-258.0062"/>
</g>
<!-- CS 145 -->
<g id="node7" class="node">
<title>CS 145</title>
<polygon fill="none" stroke="#000000" points="623.4301,-489.7114 566.1891,-489.7114 566.1891,-448.5076 623.4301,-448.5076 623.4301,-489.7114"/>
<text text-anchor="middle" x="594.8096" y="-473.3095" font-family="Times,serif" font-size="14.00" fill="#000000">CS 145</text>
<text text-anchor="middle" x="594.8096" y="-456.5095" font-family="Times,serif" font-size="14.00" fill="#000000">C</text>
</g>
<!-- CS 145&#45;&gt;CS 150 -->
<g id="edge6" class="edge">
<title>CS 145-&gt;CS 150</title>
<path fill="none" stroke="#000000" stroke-dasharray="1,5" d="M593.8413,-448.2391C593.3598,-437.8609 592.7684,-425.1146 592.2362,-413.6436"/>
<polygon fill="#000000" stroke="#000000" points="595.7288,-413.3991 591.769,-403.5721 588.7363,-413.7236 595.7288,-413.3991"/>
</g>
<!-- CS 321 -->
<g id="node11" class="node">
<title>CS 321</title>
<polygon fill="none" stroke="#000000" points="57.4301,-239.6801 .1891,-239.6801 .1891,-198.4763 57.4301,-198.4763 57.4301,-239.6801"/>
<text text-anchor="middle" x="28.8096" y="-223.2782" font-family="Times,serif" font-size="14.00" fill="#000000">CS 321</text>
<text text-anchor="middle" x="28.8096" y="-206.4782" font-family="Times,serif" font-size="14.00" fill="#000000">C</text>
</g>
<!-- CS 234&#45;&gt;CS 321 -->
<g id="edge11" class="edge">
<title>CS 234-&gt;CS 321</title>
<path fill="none" stroke="#000000" d="M194.0586,-297.7361C161.8621,-288.6221 108.7069,-271.5986 66.8096,-248.4939 65.111,-247.5572 63.4076,-246.548 61.7141,-245.4872"/>
<polygon fill="#000000" stroke="#000000" points="63.6402,-242.5645 53.399,-239.8501 59.7122,-248.3586 63.6402,-242.5645"/>
</g>
<!-- CS 234&#45;&gt;CS 325 -->
<g id="edge15" class="edge">
<title>CS 234-&gt;CS 325</title>
<path fill="none" stroke="#000000" d="M251.4455,-295.8253C279.7016,-285.9161 323.6491,-268.9623 358.8096,-248.4939 360.2967,-247.6282 361.7908,-246.711 363.2812,-245.7563"/>
<polygon fill="#000000" stroke="#000000" points="365.4384,-248.5208 371.7009,-239.975 361.476,-242.7502 365.4384,-248.5208"/>
</g>
<!-- CS 234&#45;&gt;CS 434 -->
<g id="edge29" class="edge">
<title>CS 234-&gt;CS 434</title>
<path fill="none" stroke="#000000" d="M220.3889,-284.4235C219.4915,-276.6865 218.4414,-267.6335 217.4138,-258.7739"/>
<polygon fill="#000000" stroke="#000000" points="220.8572,-258.0829 216.2283,-248.5528 213.9039,-258.8895 220.8572,-258.0829"/>
</g>
<!-- CS 314 -->
<g id="node10" class="node">
<title>CS 314</title>
<polygon fill="none" stroke="#000000" points="963.4301,-239.6801 906.1891,-239.6801 906.1891,-198.4763 963.4301,-198.4763 963.4301,-239.6801"/>
<text text-anchor="middle" x="934.8096" y="-223.2782" font-family="Times,serif" font-size="14.00" fill="#000000">CS 314</text>
<text text-anchor="middle" x="934.8096" y="-206.4782" font-family="Times,serif" font-size="14.00" fill="#000000">C</text>
</g>
<!-- CS 286&#45;&gt;CS 314 -->
<g id="edge10" class="edge">
<title>CS 286-&gt;CS 314</title>
<path fill="none" stroke="#000000" stroke-dasharray="1,5" d="M716.4602,-301.1692C757.9484,-294.4012 836.3935,-278.5816 896.8096,-248.4939 898.6019,-247.6013 900.3922,-246.6175 902.165,-245.5675"/>
<polygon fill="#000000" stroke="#000000" points="904.3802,-248.2998 910.8126,-239.881 900.5342,-242.451 904.3802,-248.2998"/>
</g>
<!-- CS 330 -->
<g id="node15" class="node">
<title>CS 330</title>
<polygon fill="none" stroke="#000000" points="773.4301,-239.6801 716.1891,-239.6801 716.1891,-198.4763 773.4301,-198.4763 773.4301,-239.6801"/>
<text text-anchor="middle" x="744.8096" y="-223.2782" font-family="Times,serif" font-size="14.00" fill="#000000">CS 330</text>
<text text-anchor="middle" x="744.8096" y="-206.4782" font-family="Times,serif" font-size="14.00" fill="#000000">C</text>
</g>
<!-- CS 286&#45;&gt;CS 330 -->
<g id="edge16" class="edge">
<title>CS 286-&gt;CS 330</title>
<path fill="none" stroke="#000000" stroke-dasharray="1,5" d="M701.6077,-284.4235C708.7492,-273.6216 717.5866,-260.2545 725.4042,-248.43"/>
<polygon fill="#000000" stroke="#000000" points="728.5431,-250.0284 731.1386,-239.7564 722.7039,-246.1679 728.5431,-250.0284"/>
</g>
<!-- CS 382 -->
<g id="node20" class="node">
<title>CS 382</title>
<ellipse fill="none" stroke="#000000" cx="253.8096" cy="-124.2469" rx="192.5036" ry="29.3315"/>
<text text-anchor="middle" x="253.8096" y="-128.4469" font-family="Times,serif" font-size="14.00" fill="#000000">CS 382</text>
<text text-anchor="middle" x="253.8096" y="-111.6469" font-family="Times,serif" font-size="14.00" fill="#000000">Game Design, Development, and Technology</text>
</g>
<!-- CS 286&#45;&gt;CS 382 -->
<g id="edge21" class="edge">
<title>CS 286-&gt;CS 382</title>
<path fill="none" stroke="#000000" d="M690.9866,-284.5333C693.6766,-258.554 693.7774,-214.4681 668.8096,-189.6626 666.3423,-187.2113 519.3833,-164.4426 401.0539,-146.4471"/>
<polygon fill="#000000" stroke="#000000" points="401.5585,-142.9837 391.1461,-144.9413 400.5066,-149.9042 401.5585,-142.9837"/>
</g>
<!-- CS 286&#45;&gt;CS 482 -->
<g id="edge37" class="edge">
<title>CS 286-&gt;CS 482</title>
<path fill="none" stroke="#000000" d="M659.7852,-284.6431C646.5516,-274.8914 630.4314,-263.0127 615.5661,-252.0586"/>
<polygon fill="#000000" stroke="#000000" points="617.5897,-249.2022 607.463,-246.0876 613.4371,-254.8375 617.5897,-249.2022"/>
</g>
<!-- CS 425 -->
<g id="node23" class="node">
<title>CS 425</title>
<polygon fill="none" stroke="#000000" points="972.4301,-144.8488 915.1891,-144.8488 915.1891,-103.645 972.4301,-103.645 972.4301,-144.8488"/>
<text text-anchor="middle" x="943.8096" y="-128.4469" font-family="Times,serif" font-size="14.00" fill="#000000">CS 425</text>
<text text-anchor="middle" x="943.8096" y="-111.6469" font-family="Times,serif" font-size="14.00" fill="#000000">C</text>
</g>
<!-- CS 314&#45;&gt;CS 425 -->
<g id="edge25" class="edge">
<title>CS 314-&gt;CS 425</title>
<path fill="none" stroke="#000000" d="M936.807,-198.0321C938.0037,-185.4221 939.5468,-169.1637 940.8797,-155.1192"/>
<polygon fill="#000000" stroke="#000000" points="944.3882,-155.1939 941.8488,-144.908 937.4195,-154.5325 944.3882,-155.1939"/>
</g>
<!-- CS 447 -->
<g id="node26" class="node">
<title>CS 447</title>
<ellipse fill="none" stroke="#000000" cx="1580.8096" cy="-124.2469" rx="157.6922" ry="29.3315"/>
<text text-anchor="middle" x="1580.8096" y="-128.4469" font-family="Times,serif" font-size="14.00" fill="#000000">CS 447</text>
<text text-anchor="middle" x="1580.8096" y="-111.6469" font-family="Times,serif" font-size="14.00" fill="#000000">Networks and Data Communications</text>
</g>
<!-- CS 314&#45;&gt;CS 447 -->
<g id="edge32" class="edge">
<title>CS 314-&gt;CS 447</title>
<path fill="none" stroke="#000000" stroke-dasharray="1,5" d="M963.4812,-205.9845C977.4817,-200.1108 994.7376,-193.626 1010.8096,-189.6626 1145.4063,-156.4708 1302.1227,-140.0345 1417.1273,-131.9454"/>
<polygon fill="#000000" stroke="#000000" points="1417.6888,-135.4151 1427.4244,-131.2356 1417.2073,-128.4317 1417.6888,-135.4151"/>
</g>
<!-- CS 321&#45;&gt;CS 382 -->
<g id="edge22" class="edge">
<title>CS 321-&gt;CS 382</title>
<path fill="none" stroke="#000000" d="M53.3719,-198.2568C57.6918,-195.1302 62.2644,-192.1317 66.8096,-189.6626 93.1484,-175.3546 123.2256,-163.2073 151.4436,-153.4077"/>
<polygon fill="#000000" stroke="#000000" points="152.5967,-156.7124 160.9338,-150.1746 150.3393,-150.0864 152.5967,-156.7124"/>
</g>
<!-- STAT 244&#45;&gt;CS 321 -->
<g id="edge12" class="edge">
<title>STAT 244-&gt;CS 321</title>
<path fill="none" stroke="#000000" stroke-dasharray="1,5" d="M471.701,-465.3917C409.8728,-458.4957 284.5735,-440.9034 184.8096,-403.6939 119.2435,-379.2393 88.2168,-383.227 47.8096,-326.0939 32.1954,-304.0163 28.1085,-273.1219 27.5362,-250.1998"/>
<polygon fill="#000000" stroke="#000000" points="31.0354,-249.9623 27.4969,-239.9758 24.0355,-249.9892 31.0354,-249.9623"/>
</g>
<!-- STAT 380 -->
<g id="node13" class="node">
<title>STAT 380</title>
<polygon fill="none" stroke="#000000" points="132.8056,-325.8958 56.8136,-325.8958 56.8136,-284.6919 132.8056,-284.6919 132.8056,-325.8958"/>
<text text-anchor="middle" x="94.8096" y="-309.4939" font-family="Times,serif" font-size="14.00" fill="#000000">STAT 380</text>
<text text-anchor="middle" x="94.8096" y="-292.6939" font-family="Times,serif" font-size="14.00" fill="#000000">C</text>
</g>
<!-- STAT 380&#45;&gt;CS 321 -->
<g id="edge13" class="edge">
<title>STAT 380-&gt;CS 321</title>
<path fill="none" stroke="#000000" stroke-dasharray="1,5" d="M78.8328,-284.4235C70.4017,-273.4098 59.9289,-259.7293 50.748,-247.7362"/>
<polygon fill="#000000" stroke="#000000" points="53.497,-245.5694 44.6392,-239.7564 47.9387,-249.8244 53.497,-245.5694"/>
</g>
<!-- CS 325&#45;&gt;CS 425 -->
<g id="edge26" class="edge">
<title>CS 325-&gt;CS 425</title>
<path fill="none" stroke="#000000" d="M425.7874,-205.6095C439.7114,-199.7268 456.8154,-193.3421 472.8096,-189.6626 661.0022,-146.3679 725.8286,-223.6461 905.8096,-153.6626 908.1909,-152.7366 910.5463,-151.6112 912.8479,-150.3474"/>
<polygon fill="#000000" stroke="#000000" points="914.8349,-153.2317 921.3994,-144.9155 911.0817,-147.3229 914.8349,-153.2317"/>
</g>
<!-- CS 423 -->
<g id="node22" class="node">
<title>CS 423</title>
<ellipse fill="none" stroke="#000000" cx="566.8096" cy="-124.2469" rx="102.1537" ry="29.3315"/>
<text text-anchor="middle" x="566.8096" y="-128.4469" font-family="Times,serif" font-size="14.00" fill="#000000">CS 423</text>
<text text-anchor="middle" x="566.8096" y="-111.6469" font-family="Times,serif" font-size="14.00" fill="#000000">Compiler Construction</text>
</g>
<!-- CS 330&#45;&gt;CS 423 -->
<g id="edge23" class="edge">
<title>CS 330-&gt;CS 423</title>
<path fill="none" stroke="#000000" stroke-dasharray="1,5" d="M716.044,-198.5409C711.3601,-195.4478 706.5041,-192.3854 701.8096,-189.6626 679.5338,-176.7423 654.3262,-164.044 631.7747,-153.3235"/>
<polygon fill="#000000" stroke="#000000" points="633.1573,-150.106 622.6193,-149.0097 630.1736,-156.4382 633.1573,-150.106"/>
</g>
<!-- CS 454 -->
<g id="node28" class="node">
<title>CS 454</title>
<ellipse fill="none" stroke="#000000" cx="791.8096" cy="-124.2469" rx="104.5897" ry="29.3315"/>
<text text-anchor="middle" x="791.8096" y="-128.4469" font-family="Times,serif" font-size="14.00" fill="#000000">CS 454</text>
<text text-anchor="middle" x="791.8096" y="-111.6469" font-family="Times,serif" font-size="14.00" fill="#000000">Theory of Computation</text>
</g>
<!-- CS 330&#45;&gt;CS 454 -->
<g id="edge34" class="edge">
<title>CS 330-&gt;CS 454</title>
<path fill="none" stroke="#000000" d="M755.2404,-198.0321C760.4126,-187.5962 766.8233,-174.6616 772.8255,-162.551"/>
<polygon fill="#000000" stroke="#000000" points="776.0037,-164.0198 777.3085,-153.5056 769.7318,-160.9113 776.0037,-164.0198"/>
</g>
<!-- CS 340&#45;&gt;CS 425 -->
<g id="edge24" class="edge">
<title>CS 340-&gt;CS 425</title>
<path fill="none" stroke="#000000" d="M989.9973,-284.4667C987.5902,-261.0355 982.4689,-222.0229 972.8096,-189.6626 969.237,-177.6936 963.9971,-165.0354 958.9509,-154.0758"/>
<polygon fill="#000000" stroke="#000000" points="962.0645,-152.4733 954.6128,-144.9418 955.7414,-155.4764 962.0645,-152.4733"/>
</g>
<!-- CS 438 -->
<g id="node25" class="node">
<title>CS 438</title>
<ellipse fill="none" stroke="#000000" cx="1116.8096" cy="-219.0782" rx="96.5941" ry="29.3315"/>
<text text-anchor="middle" x="1116.8096" y="-223.2782" font-family="Times,serif" font-size="14.00" fill="#000000">CS 438</text>
<text text-anchor="middle" x="1116.8096" y="-206.4782" font-family="Times,serif" font-size="14.00" fill="#000000">Artificial Intelligence</text>
</g>
<!-- CS 340&#45;&gt;CS 438 -->
<g id="edge30" class="edge">
<title>CS 340-&gt;CS 438</title>
<path fill="none" stroke="#000000" stroke-dasharray="1,5" d="M1020.4871,-285.5142C1034.8499,-275.6079 1052.6229,-263.3494 1068.9761,-252.0702"/>
<polygon fill="#000000" stroke="#000000" points="1071.1281,-254.8377 1077.3728,-246.2788 1067.1537,-249.0754 1071.1281,-254.8377"/>
</g>
<!-- CS 340&#45;&gt;CS 447 -->
<g id="edge31" class="edge">
<title>CS 340-&gt;CS 447</title>
<path fill="none" stroke="#000000" d="M1020.6785,-304.9119C1138.4157,-303.0605 1577.9883,-293.1803 1618.8096,-248.4939 1640.4998,-224.75 1626.2449,-188.917 1609.3543,-161.8244"/>
<polygon fill="#000000" stroke="#000000" points="1612.2225,-159.8153 1603.82,-153.3616 1606.364,-163.6465 1612.2225,-159.8153"/>
</g>
<!-- CS 456 -->
<g id="node29" class="node">
<title>CS 456</title>
<ellipse fill="none" stroke="#000000" cx="1382.8096" cy="-219.0782" rx="151.5623" ry="29.3315"/>
<text text-anchor="middle" x="1382.8096" y="-223.2782" font-family="Times,serif" font-size="14.00" fill="#000000">CS 456</text>
<text text-anchor="middle" x="1382.8096" y="-206.4782" font-family="Times,serif" font-size="14.00" fill="#000000">Design and Analysis of Algorithms</text>
</g>
<!-- CS 340&#45;&gt;CS 456 -->
<g id="edge36" class="edge">
<title>CS 340-&gt;CS 456</title>
<path fill="none" stroke="#000000" stroke-dasharray="1,5" d="M1020.5608,-298.9542C1072.949,-287.4026 1186.4839,-262.3681 1272.5792,-243.3841"/>
<polygon fill="#000000" stroke="#000000" points="1273.3943,-246.7885 1282.4061,-241.2172 1271.887,-239.9527 1273.3943,-246.7885"/>
</g>
<!-- MATH 224&#45;&gt;CS 340 -->
<g id="edge18" class="edge">
<title>MATH 224-&gt;CS 340</title>
<path fill="none" stroke="#000000" d="M850.2765,-362.2004C882.6817,-349.1712 923.8204,-332.6304 953.3825,-320.7443"/>
<polygon fill="#000000" stroke="#000000" points="954.9623,-323.8815 962.9347,-316.9037 952.3509,-317.3868 954.9623,-323.8815"/>
</g>
<!-- MATH 224&#45;&gt;CS 454 -->
<g id="edge35" class="edge">
<title>MATH 224-&gt;CS 454</title>
<path fill="none" stroke="#000000" d="M798.2486,-362.1649C797.0874,-319.2579 794.4029,-220.0669 792.8924,-164.256"/>
<polygon fill="#000000" stroke="#000000" points="796.3851,-163.934 792.6157,-154.0324 789.3876,-164.1235 796.3851,-163.934"/>
</g>
<!-- MATH 150 -->
<g id="node18" class="node">
<title>MATH 150</title>
<polygon fill="none" stroke="#000000" points="927.5205,-575.927 846.0987,-575.927 846.0987,-534.7232 927.5205,-534.7232 927.5205,-575.927"/>
<text text-anchor="middle" x="886.8096" y="-559.5251" font-family="Times,serif" font-size="14.00" fill="#000000">MATH 150</text>
<text text-anchor="middle" x="886.8096" y="-542.7251" font-family="Times,serif" font-size="14.00" fill="#000000">C</text>
</g>
<!-- MATH 150&#45;&gt;STAT 244 -->
<g id="edge49" class="edge">
<title>MATH 150-&gt;STAT 244</title>
<path fill="none" stroke="#000000" stroke-dasharray="1,5" d="M845.8564,-544.6167C831.6535,-541.1172 815.5871,-537.3962 800.8096,-534.5251 693.2032,-513.6189 659.6745,-536.4066 556.8096,-498.5251 553.7384,-497.3941 550.6539,-496.0447 547.6139,-494.5547"/>
<polygon fill="#000000" stroke="#000000" points="549.1482,-491.4057 538.6848,-489.7415 545.8266,-497.5675 549.1482,-491.4057"/>
</g>
<!-- MATH 150&#45;&gt;CS 340 -->
<g id="edge19" class="edge">
<title>MATH 150-&gt;CS 340</title>
<path fill="none" stroke="#000000" d="M890.0555,-534.3107C894.1183,-510.7116 902.1261,-471.549 914.8096,-439.6939 930.0031,-401.5349 954.4756,-361.0684 971.7468,-334.6307"/>
<polygon fill="#000000" stroke="#000000" points="974.708,-336.4981 977.3042,-326.2263 968.869,-332.6371 974.708,-336.4981"/>
</g>
<!-- MATH 223 -->
<g id="node35" class="node">
<title>MATH 223</title>
<ellipse fill="none" stroke="#000000" cx="1069.8096" cy="-469.1095" rx="145.9981" ry="29.3315"/>
<text text-anchor="middle" x="1069.8096" y="-473.3095" font-family="Times,serif" font-size="14.00" fill="#000000">MATH 223</text>
<text text-anchor="middle" x="1069.8096" y="-456.5095" font-family="Times,serif" font-size="14.00" fill="#000000">Logic &amp; Mathematical Reasoning</text>
</g>
<!-- MATH 150&#45;&gt;MATH 223 -->
<g id="edge42" class="edge">
<title>MATH 150-&gt;MATH 223</title>
<path fill="none" stroke="#000000" stroke-dasharray="1,5" d="M927.8784,-535.9767C950.0279,-525.5415 977.9112,-512.405 1003.0877,-500.5438"/>
<polygon fill="#000000" stroke="#000000" points="1004.6705,-503.6671 1012.2251,-496.2389 1001.6871,-497.3347 1004.6705,-503.6671"/>
</g>
<!-- CS 360 -->
<g id="node19" class="node">
<title>CS 360</title>
<polygon fill="none" stroke="#000000" points="887.4301,-239.6801 830.1891,-239.6801 830.1891,-198.4763 887.4301,-198.4763 887.4301,-239.6801"/>
<text text-anchor="middle" x="858.8096" y="-223.2782" font-family="Times,serif" font-size="14.00" fill="#000000">CS 360</text>
<text text-anchor="middle" x="858.8096" y="-206.4782" font-family="Times,serif" font-size="14.00" fill="#000000">C</text>
</g>
<!-- CS 360&#45;&gt;CS 425 -->
<g id="edge27" class="edge">
<title>CS 360-&gt;CS 425</title>
<path fill="none" stroke="#000000" d="M877.6739,-198.0321C889.6414,-184.6803 905.2752,-167.2383 918.3377,-152.6649"/>
<polygon fill="#000000" stroke="#000000" points="921.2223,-154.6906 925.2905,-144.908 916.0097,-150.0184 921.2223,-154.6906"/>
</g>
<!-- MATH 152 -->
<g id="node21" class="node">
<title>MATH 152</title>
<polygon fill="none" stroke="#000000" points="536.5205,-325.8958 455.0987,-325.8958 455.0987,-284.6919 536.5205,-284.6919 536.5205,-325.8958"/>
<text text-anchor="middle" x="495.8096" y="-309.4939" font-family="Times,serif" font-size="14.00" fill="#000000">MATH 152</text>
<text text-anchor="middle" x="495.8096" y="-292.6939" font-family="Times,serif" font-size="14.00" fill="#000000">C</text>
</g>
<!-- MATH 152&#45;&gt;CS 382 -->
<g id="edge20" class="edge">
<title>MATH 152-&gt;CS 382</title>
<path fill="none" stroke="#000000" d="M486.9475,-284.3169C474.1168,-254.7906 450.2196,-203.0718 434.8096,-189.6626 416.5327,-173.7587 394.0885,-161.6161 371.304,-152.38"/>
<polygon fill="#000000" stroke="#000000" points="372.4661,-149.0767 361.877,-148.7256 369.9359,-155.6035 372.4661,-149.0767"/>
</g>
<!-- MATH 152&#45;&gt;CS 482 -->
<g id="edge38" class="edge">
<title>MATH 152-&gt;CS 482</title>
<path fill="none" stroke="#000000" d="M513.965,-284.4235C521.5591,-275.6937 530.6108,-265.2884 539.2337,-255.376"/>
<polygon fill="#000000" stroke="#000000" points="542.0985,-257.4155 546.0212,-247.5735 536.8172,-252.8212 542.0985,-257.4155"/>
</g>
<!-- CS 499 -->
<g id="node33" class="node">
<title>CS 499</title>
<ellipse fill="none" stroke="#000000" cx="943.8096" cy="-29.4156" rx="173.5727" ry="29.3315"/>
<text text-anchor="middle" x="943.8096" y="-33.6156" font-family="Times,serif" font-size="14.00" fill="#000000">CS 499</text>
<text text-anchor="middle" x="943.8096" y="-16.8156" font-family="Times,serif" font-size="14.00" fill="#000000">Senior Project: Software Implementation</text>
</g>
<!-- CS 425&#45;&gt;CS 499 -->
<g id="edge40" class="edge">
<title>CS 425-&gt;CS 499</title>
<path fill="none" stroke="#000000" stroke-dasharray="1,5" d="M943.8096,-103.2008C943.8096,-93.1563 943.8096,-80.7969 943.8096,-69.0854"/>
<polygon fill="#000000" stroke="#000000" points="947.3097,-69.0348 943.8096,-59.0348 940.3097,-69.0349 947.3097,-69.0348"/>
</g>
<!-- CS 414 -->
<g id="node27" class="node">
<title>CS 414</title>
<polygon fill="none" stroke="#000000" points="1609.4301,-239.6801 1552.1891,-239.6801 1552.1891,-198.4763 1609.4301,-198.4763 1609.4301,-239.6801"/>
<text text-anchor="middle" x="1580.8096" y="-223.2782" font-family="Times,serif" font-size="14.00" fill="#000000">CS 414</text>
<text text-anchor="middle" x="1580.8096" y="-206.4782" font-family="Times,serif" font-size="14.00" fill="#000000">C</text>
</g>
<!-- CS 414&#45;&gt;CS 447 -->
<g id="edge33" class="edge">
<title>CS 414-&gt;CS 447</title>
<path fill="none" stroke="#000000" stroke-dasharray="1,5" d="M1580.8096,-198.0321C1580.8096,-187.9876 1580.8096,-175.6281 1580.8096,-163.9167"/>
<polygon fill="#000000" stroke="#000000" points="1584.3097,-163.8661 1580.8096,-153.8661 1577.3097,-163.8662 1584.3097,-163.8661"/>
</g>
<!-- CS 490 -->
<g id="node31" class="node">
<title>CS 490</title>
<ellipse fill="none" stroke="#000000" cx="860.8096" cy="-641.5408" rx="123.5127" ry="29.3315"/>
<text text-anchor="middle" x="860.8096" y="-645.7408" font-family="Times,serif" font-size="14.00" fill="#000000">CS 490</text>
<text text-anchor="middle" x="860.8096" y="-628.9408" font-family="Times,serif" font-size="14.00" fill="#000000">Topics in Computer Science</text>
</g>
<!-- CS 495 -->
<g id="node32" class="node">
<title>CS 495</title>
<ellipse fill="none" stroke="#000000" cx="1088.8096" cy="-641.5408" rx="85.6409" ry="29.3315"/>
<text text-anchor="middle" x="1088.8096" y="-645.7408" font-family="Times,serif" font-size="14.00" fill="#000000">CS 495</text>
<text text-anchor="middle" x="1088.8096" y="-628.9408" font-family="Times,serif" font-size="14.00" fill="#000000">Independent Study</text>
</g>
<!-- MATH 125 -->
<g id="node34" class="node">
<title>MATH 125</title>
<polygon fill="none" stroke="#000000" points="718.5205,-662.1427 637.0987,-662.1427 637.0987,-620.9389 718.5205,-620.9389 718.5205,-662.1427"/>
<text text-anchor="middle" x="677.8096" y="-645.7408" font-family="Times,serif" font-size="14.00" fill="#000000">MATH 125</text>
<text text-anchor="middle" x="677.8096" y="-628.9408" font-family="Times,serif" font-size="14.00" fill="#000000">C</text>
</g>
<!-- MATH 125&#45;&gt;STAT 244 -->
<g id="edge47" class="edge">
<title>MATH 125-&gt;STAT 244</title>
<path fill="none" stroke="#000000" stroke-dasharray="1,5" d="M637.0187,-633.183C586.8831,-621.9866 506.2817,-600.6616 488.8096,-576.1251 472.7865,-553.6235 481.8479,-522.0109 492.6061,-498.9808"/>
<polygon fill="#000000" stroke="#000000" points="495.7558,-500.5075 497.0883,-489.9968 489.492,-497.3824 495.7558,-500.5075"/>
</g>
<!-- MATH 125&#45;&gt;MATH 150 -->
<g id="edge41" class="edge">
<title>MATH 125-&gt;MATH 150</title>
<path fill="none" stroke="#000000" stroke-dasharray="1,5" d="M710.959,-620.8698C716.4927,-617.7601 722.2446,-614.7277 727.8096,-612.1251 762.9103,-595.71 804.1575,-581.1021 835.8438,-570.8121"/>
<polygon fill="#000000" stroke="#000000" points="837.3227,-574.0134 845.7757,-567.6261 835.1845,-567.348 837.3227,-574.0134"/>
</g>
<!-- MATH 145 -->
<g id="node36" class="node">
<title>MATH 145</title>
<polygon fill="none" stroke="#000000" points="441.5205,-575.927 360.0987,-575.927 360.0987,-534.7232 441.5205,-534.7232 441.5205,-575.927"/>
<text text-anchor="middle" x="400.8096" y="-559.5251" font-family="Times,serif" font-size="14.00" fill="#000000">MATH 145</text>
<text text-anchor="middle" x="400.8096" y="-542.7251" font-family="Times,serif" font-size="14.00" fill="#000000">C</text>
</g>
<!-- MATH 145&#45;&gt;STAT 244 -->
<g id="edge48" class="edge">
<title>MATH 145-&gt;STAT 244</title>
<path fill="none" stroke="#000000" stroke-dasharray="1,5" d="M426.9178,-534.6743C441.506,-523.1356 459.8595,-508.6185 475.586,-496.1793"/>
<polygon fill="#000000" stroke="#000000" points="477.8648,-498.8394 483.5366,-489.8906 473.5222,-493.3492 477.8648,-498.8394"/>
</g>
</g>
</svg>