<?xml version="1.0" encoding="UTF-8" standalone="no"?><!DOCTYPE svg PUBLIC "-//W3C//DTD SVG 1.1//EN" "http://www.w3.org/Graphics/SVG/1.1/DTD/svg11.dtd"><!-- Generated by graphviz version 2.40.1 (20161225.0304)
 --><!-- Title: G Pages: 1 --><svg xmlns="http://www.w3.org/2000/svg" xmlns:xlink="http://www.w3.org/1999/xlink" width="656pt" height="256pt" viewBox="0.00 0.00 656.01 256.49">
<g id="graph0" class="graph" transform="scale(1 1) rotate(0) translate(4 252.4939)">
<title>G</title>
<polygon fill="#ffffff" stroke="transparent" points="-4,4 -4,-252.4939 652.0105,-252.4939 652.0105,4 -4,4"/>
<!-- CS101 -->
<g id="node1" class="node">
<title>CS101</title>
<ellipse fill="none" stroke="#000000" cx="256.9482" cy="-219.0782" rx="127.1837" ry="29.3315"/>
<text text-anchor="middle" x="256.9482" y="-223.2782" font-family="Times,serif" font-size="14.00" fill="#000000">CS101</text>
<text text-anchor="middle" x="256.9482" y="-206.4782" font-family="Times,serif" font-size="14.00" fill="#000000">Introduction to Programming</text>
</g>
<!-- CS202 -->
<g id="node2" class="node">
<title>CS202</title>
<ellipse fill="none" stroke="#000000" cx="136.9482" cy="-124.2469" rx="136.8964" ry="29.3315"/>
<text text-anchor="middle" x="136.9482" y="-128.4469" font-family="Times,serif" font-size="14.00" fill="#000000">CS202</text>
<text text-anchor="middle" x="136.9482" y="-111.6469" font-family="Times,serif" font-size="14.00" fill="#000000">Data Structures and Algorithms</text>
</g>
<!-- CS101&#45;&gt;CS202 -->
<g id="edge1" class="edge">
<title>CS101-&gt;CS202</title>
<path fill="none" stroke="#000000" d="M220.9442,-190.6257C208.3666,-180.6861 194.1047,-169.4154 180.9496,-159.0195"/>
<polygon fill="#000000" stroke="#000000" points="182.9427,-156.1336 172.9267,-152.6794 178.6025,-161.6257 182.9427,-156.1336"/>
</g>
<!-- CS404 -->
<g id="node4" class="node">
<title>CS404</title>
<ellipse fill="none" stroke="#000000" cx="377.9482" cy="-124.2469" rx="85.6172" ry="29.3315"/>
<text text-anchor="middle" x="377.9482" y="-128.4469" font-family="Times,serif" font-size="14.00" fill="#000000">CS404</text>
<text text-anchor="middle" x="377.9482" y="-111.6469" font-family="Times,serif" font-size="14.00" fill="#000000">Web Development</text>
</g>
<!-- CS101&#45;&gt;CS404 -->
<g id="edge2" class="edge">
<title>CS101-&gt;CS404</title>
<path fill="none" stroke="#000000" d="M293.2522,-190.6257C306.5198,-180.2275 321.6461,-168.3725 335.4088,-157.5863"/>
<polygon fill="#000000" stroke="#000000" points="337.6184,-160.3015 343.3301,-151.3781 333.3003,-154.7919 337.6184,-160.3015"/>
</g>
<!-- CS430 -->
<g id="node5" class="node">
<title>CS430</title>
<ellipse fill="none" stroke="#000000" cx="350.9482" cy="-29.4156" rx="97.8033" ry="29.3315"/>
<text text-anchor="middle" x="350.9482" y="-33.6156" font-family="Times,serif" font-size="14.00" fill="#000000">CS430</text>
<text text-anchor="middle" x="350.9482" y="-16.8156" font-family="Times,serif" font-size="14.00" fill="#000000">Software Engineering</text>
</g>
<!-- CS202&#45;&gt;CS430 -->
<g id="edge3" class="edge">
<title>CS202-&gt;CS430</title>
<path fill="none" stroke="#000000" d="M196.8437,-97.705C224.7277,-85.3486 257.944,-70.6292 286.3861,-58.0255"/>
<polygon fill="#000000" stroke="#000000" points="288.1095,-61.0901 295.8341,-53.8387 285.2735,-54.6903 288.1095,-61.0901"/>
</g>
<!-- CS303 -->
<g id="node3" class="node">
<title>CS303</title>
<ellipse fill="none" stroke="#000000" cx="564.9482" cy="-124.2469" rx="83.1246" ry="29.3315"/>
<text text-anchor="middle" x="564.9482" y="-128.4469" font-family="Times,serif" font-size="14.00" fill="#000000">CS303</text>
<text text-anchor="middle" x="564.9482" y="-111.6469" font-family="Times,serif" font-size="14.00" fill="#000000">Database Systems</text>
</g>
<!-- CS303&#45;&gt;CS430 -->
<g id="edge4" class="edge">
<title>CS303-&gt;CS430</title>
<path fill="none" stroke="#000000" d="M512.8716,-101.1698C483.6079,-88.2021 446.8246,-71.902 415.7149,-58.1161"/>
<polygon fill="#000000" stroke="#000000" points="416.8174,-54.7765 406.2569,-53.925 413.9814,-61.1763 416.8174,-54.7765"/>
</g>
</g>
</svg>