<?xml version="1.0" encoding="UTF-8" standalone="no"?><!DOCTYPE svg PUBLIC "-//W3C//DTD SVG 1.1//EN" "http://www.w3.org/Graphics/SVG/1.1/DTD/svg11.dtd"><!-- Generated by graphviz version 2.40.1 (20161225.0304)
 --><!-- Title: G Pages: 1 --><svg xmlns="http://www.w3.org/2000/svg" xmlns:xlink="http://www.w3.org/1999/xlink" width="1089pt" height="518pt" viewBox="0.00 0.00 1089.32 518.16">
<g id="graph0" class="graph" transform="scale(1 1) rotate(0) translate(4 514.1564)">
<title>G</title>
<polygon fill="#ffffff" stroke="transparent" points="-4,4 -4,-514.1564 1085.3196,-514.1564 1085.3196,4 -4,4"/>
<!-- PBHE 111 -->
<g id="node1" class="node">
<title>PBHE 111</title>
<ellipse fill="none" stroke="#000000" cx="53.937" cy="-480.7408" rx="53.874" ry="29.3315"/>
<text text-anchor="middle" x="53.937" y="-484.9408" font-family="Times,serif" font-size="14.00" fill="#000000">PBHE 111</text>
<text text-anchor="middle" x="53.937" y="-468.1408" font-family="Times,serif" font-size="14.00" fill="#000000">C</text>
</g>
<!-- PBHE 363 -->
<g id="node6" class="node">
<title>PBHE 363</title>
<ellipse fill="none" stroke="#000000" cx="110.937" cy="-385.9095" rx="52.7312" ry="18"/>
<text text-anchor="middle" x="110.937" y="-381.7095" font-family="Times,serif" font-size="14.00" fill="#000000">PBHE 363</text>
</g>
<!-- PBHE 111&#45;&gt;PBHE 363 -->
<g id="edge4" class="edge">
<title>PBHE 111-&gt;PBHE 363</title>
<path fill="none" stroke="#000000" stroke-dasharray="1,5" d="M70.8845,-452.545C78.5426,-439.8043 87.5402,-424.8349 95.0654,-412.3152"/>
<polygon fill="#000000" stroke="#000000" points="98.0925,-414.0727 100.2445,-403.6987 92.0929,-410.4665 98.0925,-414.0727"/>
</g>
<!-- PBHE 410 -->
<g id="node12" class="node">
<title>PBHE 410</title>
<ellipse fill="none" stroke="#000000" cx="261.937" cy="-385.9095" rx="52.7312" ry="18"/>
<text text-anchor="middle" x="261.937" y="-381.7095" font-family="Times,serif" font-size="14.00" fill="#000000">PBHE 410</text>
</g>
<!-- PBHE 111&#45;&gt;PBHE 410 -->
<g id="edge10" class="edge">
<title>PBHE 111-&gt;PBHE 410</title>
<path fill="none" stroke="#000000" stroke-dasharray="1,5" d="M94.9067,-461.5172C102.2349,-458.1056 109.8061,-454.5982 116.937,-451.3251 151.7767,-435.3335 191.4653,-417.4515 220.5014,-404.4306"/>
<polygon fill="#000000" stroke="#000000" points="222.2234,-407.4944 229.9177,-400.211 219.3608,-401.1064 222.2234,-407.4944"/>
</g>
<!-- PBHE 305 -->
<g id="node2" class="node">
<title>PBHE 305</title>
<ellipse fill="none" stroke="#000000" cx="757.937" cy="-480.7408" rx="53.874" ry="29.3315"/>
<text text-anchor="middle" x="757.937" y="-484.9408" font-family="Times,serif" font-size="14.00" fill="#000000">PBHE 305</text>
<text text-anchor="middle" x="757.937" y="-468.1408" font-family="Times,serif" font-size="14.00" fill="#000000">C</text>
</g>
<!-- PBHE 370 -->
<g id="node8" class="node">
<title>PBHE 370</title>
<ellipse fill="none" stroke="#000000" cx="759.937" cy="-385.9095" rx="53.874" ry="29.3315"/>
<text text-anchor="middle" x="759.937" y="-390.1095" font-family="Times,serif" font-size="14.00" fill="#000000">PBHE 370</text>
<text text-anchor="middle" x="759.937" y="-373.3095" font-family="Times,serif" font-size="14.00" fill="#000000">C</text>
</g>
<!-- PBHE 305&#45;&gt;PBHE 370 -->
<g id="edge6" class="edge">
<title>PBHE 305-&gt;PBHE 370</title>
<path fill="none" stroke="#000000" stroke-dasharray="1,5" d="M758.5588,-451.2554C758.73,-443.138 758.9186,-434.1983 759.0998,-425.6062"/>
<polygon fill="#000000" stroke="#000000" points="762.6038,-425.4483 759.3155,-415.3766 755.6053,-425.3006 762.6038,-425.4483"/>
</g>
<!-- PBHE 405 -->
<g id="node11" class="node">
<title>PBHE 405</title>
<ellipse fill="none" stroke="#000000" cx="384.937" cy="-385.9095" rx="52.7312" ry="18"/>
<text text-anchor="middle" x="384.937" y="-381.7095" font-family="Times,serif" font-size="14.00" fill="#000000">PBHE 405</text>
</g>
<!-- PBHE 305&#45;&gt;PBHE 405 -->
<g id="edge8" class="edge">
<title>PBHE 305-&gt;PBHE 405</title>
<path fill="none" stroke="#000000" stroke-dasharray="1,5" d="M718.3848,-460.7337C710.1342,-457.1632 701.3763,-453.7989 692.937,-451.3251 586.9008,-420.2429 552.6887,-447.3617 446.937,-415.3251 438.6597,-412.8176 430.0913,-409.3668 422.0624,-405.7094"/>
<polygon fill="#000000" stroke="#000000" points="423.4684,-402.5024 412.9348,-401.3651 420.4601,-408.8231 423.4684,-402.5024"/>
</g>
<!-- PBHE 420 -->
<g id="node15" class="node">
<title>PBHE 420</title>
<ellipse fill="none" stroke="#000000" cx="634.937" cy="-385.9095" rx="52.7312" ry="18"/>
<text text-anchor="middle" x="634.937" y="-381.7095" font-family="Times,serif" font-size="14.00" fill="#000000">PBHE 420</text>
</g>
<!-- PBHE 305&#45;&gt;PBHE 420 -->
<g id="edge14" class="edge">
<title>PBHE 305-&gt;PBHE 420</title>
<path fill="none" stroke="#000000" stroke-dasharray="1,5" d="M726.5806,-456.5655C707.4845,-441.8426 683.2369,-423.1481 664.4805,-408.6872"/>
<polygon fill="#000000" stroke="#000000" points="666.6055,-405.9061 656.5489,-402.572 662.3314,-411.4497 666.6055,-405.9061"/>
</g>
<!-- PBHE 490 -->
<g id="node17" class="node">
<title>PBHE 490</title>
<ellipse fill="none" stroke="#000000" cx="759.937" cy="-291.0782" rx="53.874" ry="29.3315"/>
<text text-anchor="middle" x="759.937" y="-295.2782" font-family="Times,serif" font-size="14.00" fill="#000000">PBHE 490</text>
<text text-anchor="middle" x="759.937" y="-278.4782" font-family="Times,serif" font-size="14.00" fill="#000000">C</text>
</g>
<!-- PBHE 305&#45;&gt;PBHE 490 -->
<g id="edge18" class="edge">
<title>PBHE 305-&gt;PBHE 490</title>
<path fill="none" stroke="#000000" d="M790.6964,-457.0659C803.2783,-445.9737 816.2234,-431.6064 822.937,-415.3251 832.9046,-391.1523 832.7155,-380.7438 822.937,-356.4939 817.7682,-343.6757 808.7528,-331.9661 799.131,-322.1087"/>
<polygon fill="#000000" stroke="#000000" points="801.3343,-319.371 791.7086,-314.9441 796.4727,-324.4074 801.3343,-319.371"/>
</g>
<!-- PBHE 353 -->
<g id="node3" class="node">
<title>PBHE 353</title>
<ellipse fill="none" stroke="#000000" cx="975.937" cy="-385.9095" rx="53.874" ry="29.3315"/>
<text text-anchor="middle" x="975.937" y="-390.1095" font-family="Times,serif" font-size="14.00" fill="#000000">PBHE 353</text>
<text text-anchor="middle" x="975.937" y="-373.3095" font-family="Times,serif" font-size="14.00" fill="#000000">C</text>
</g>
<!-- PBHE 455 -->
<g id="node16" class="node">
<title>PBHE 455</title>
<ellipse fill="none" stroke="#000000" cx="975.937" cy="-291.0782" rx="52.7312" ry="18"/>
<text text-anchor="middle" x="975.937" y="-286.8782" font-family="Times,serif" font-size="14.00" fill="#000000">PBHE 455</text>
</g>
<!-- PBHE 353&#45;&gt;PBHE 455 -->
<g id="edge15" class="edge">
<title>PBHE 353-&gt;PBHE 455</title>
<path fill="none" stroke="#000000" stroke-dasharray="1,5" d="M975.937,-356.4241C975.937,-344.6018 975.937,-331.0355 975.937,-319.3387"/>
<polygon fill="#000000" stroke="#000000" points="979.4371,-319.2259 975.937,-309.2259 972.4371,-319.226 979.4371,-319.2259"/>
</g>
<!-- STAT 107 -->
<g id="node4" class="node">
<title>STAT 107</title>
<ellipse fill="none" stroke="#000000" cx="902.937" cy="-480.7408" rx="53.2655" ry="29.3315"/>
<text text-anchor="middle" x="902.937" y="-484.9408" font-family="Times,serif" font-size="14.00" fill="#000000">STAT 107</text>
<text text-anchor="middle" x="902.937" y="-468.1408" font-family="Times,serif" font-size="14.00" fill="#000000">C</text>
</g>
<!-- STAT 107&#45;&gt;PBHE 353 -->
<g id="edge1" class="edge">
<title>STAT 107-&gt;PBHE 353</title>
<path fill="none" stroke="#000000" stroke-dasharray="1,5" d="M923.8558,-453.5659C931.6449,-443.4475 940.5994,-431.8151 948.8621,-421.0813"/>
<polygon fill="#000000" stroke="#000000" points="951.6886,-423.1474 955.015,-413.0883 946.1417,-418.8775 951.6886,-423.1474"/>
</g>
<!-- STAT 244 -->
<g id="node5" class="node">
<title>STAT 244</title>
<ellipse fill="none" stroke="#000000" cx="1027.937" cy="-480.7408" rx="53.2655" ry="29.3315"/>
<text text-anchor="middle" x="1027.937" y="-484.9408" font-family="Times,serif" font-size="14.00" fill="#000000">STAT 244</text>
<text text-anchor="middle" x="1027.937" y="-468.1408" font-family="Times,serif" font-size="14.00" fill="#000000">C</text>
</g>
<!-- STAT 244&#45;&gt;PBHE 353 -->
<g id="edge2" class="edge">
<title>STAT 244-&gt;PBHE 353</title>
<path fill="none" stroke="#000000" stroke-dasharray="1,5" d="M1012.476,-452.545C1007.3875,-443.2652 1001.6507,-432.8032 996.2569,-422.9664"/>
<polygon fill="#000000" stroke="#000000" points="999.3051,-421.2458 991.4281,-414.1604 993.1673,-424.6115 999.3051,-421.2458"/>
</g>
<!-- HED 111 -->
<g id="node7" class="node">
<title>HED 111</title>
<ellipse fill="none" stroke="#000000" cx="174.937" cy="-480.7408" rx="48.9566" ry="29.3315"/>
<text text-anchor="middle" x="174.937" y="-484.9408" font-family="Times,serif" font-size="14.00" fill="#000000">HED 111</text>
<text text-anchor="middle" x="174.937" y="-468.1408" font-family="Times,serif" font-size="14.00" fill="#000000">C</text>
</g>
<!-- HED 111&#45;&gt;PBHE 363 -->
<g id="edge3" class="edge">
<title>HED 111-&gt;PBHE 363</title>
<path fill="none" stroke="#000000" stroke-dasharray="1,5" d="M156.4255,-453.3116C147.6669,-440.3337 137.2581,-424.9105 128.6091,-412.095"/>
<polygon fill="#000000" stroke="#000000" points="131.4396,-410.0323 122.9444,-403.7013 125.6373,-413.9482 131.4396,-410.0323"/>
</g>
<!-- HED 111&#45;&gt;PBHE 410 -->
<g id="edge9" class="edge">
<title>HED 111-&gt;PBHE 410</title>
<path fill="none" stroke="#000000" stroke-dasharray="1,5" d="M198.7101,-454.8277C211.3271,-441.075 226.7531,-424.2604 239.2095,-410.6828"/>
<polygon fill="#000000" stroke="#000000" points="241.9755,-412.8451 246.1567,-403.1102 236.8173,-408.1129 241.9755,-412.8451"/>
</g>
<!-- PBHE 370&#45;&gt;PBHE 490 -->
<g id="edge16" class="edge">
<title>PBHE 370-&gt;PBHE 490</title>
<path fill="none" stroke="#000000" d="M759.937,-356.4241C759.937,-348.3067 759.937,-339.3671 759.937,-330.7749"/>
<polygon fill="#000000" stroke="#000000" points="763.4371,-330.5453 759.937,-320.5454 756.4371,-330.5454 763.4371,-330.5453"/>
</g>
<!-- HED 305 -->
<g id="node9" class="node">
<title>HED 305</title>
<ellipse fill="none" stroke="#000000" cx="634.937" cy="-480.7408" rx="48.9566" ry="29.3315"/>
<text text-anchor="middle" x="634.937" y="-484.9408" font-family="Times,serif" font-size="14.00" fill="#000000">HED 305</text>
<text text-anchor="middle" x="634.937" y="-468.1408" font-family="Times,serif" font-size="14.00" fill="#000000">C</text>
</g>
<!-- HED 305&#45;&gt;PBHE 370 -->
<g id="edge5" class="edge">
<title>HED 305-&gt;PBHE 370</title>
<path fill="none" stroke="#000000" stroke-dasharray="1,5" d="M665.5154,-457.5424C681.9134,-445.1021 702.3187,-429.6216 719.9603,-416.2378"/>
<polygon fill="#000000" stroke="#000000" points="722.5176,-418.691 728.369,-409.8586 718.2867,-413.1142 722.5176,-418.691"/>
</g>
<!-- HED 305&#45;&gt;PBHE 405 -->
<g id="edge7" class="edge">
<title>HED 305-&gt;PBHE 405</title>
<path fill="none" stroke="#000000" stroke-dasharray="1,5" d="M591.5087,-467.1085C553.0826,-454.6976 495.7025,-435.3091 446.937,-415.3251 439.3346,-412.2097 431.3291,-408.6382 423.6892,-405.0824"/>
<polygon fill="#000000" stroke="#000000" points="425.1396,-401.8967 414.6033,-400.7846 422.1464,-408.2245 425.1396,-401.8967"/>
</g>
<!-- HED 305&#45;&gt;PBHE 420 -->
<g id="edge13" class="edge">
<title>HED 305-&gt;PBHE 420</title>
<path fill="none" stroke="#000000" stroke-dasharray="1,5" d="M634.937,-451.2554C634.937,-439.4331 634.937,-425.8668 634.937,-414.1699"/>
<polygon fill="#000000" stroke="#000000" points="638.4371,-414.0572 634.937,-404.0572 631.4371,-414.0572 638.4371,-414.0572"/>
</g>
<!-- PBHE 375 -->
<g id="node10" class="node">
<title>PBHE 375</title>
<ellipse fill="none" stroke="#000000" cx="509.937" cy="-385.9095" rx="53.874" ry="29.3315"/>
<text text-anchor="middle" x="509.937" y="-390.1095" font-family="Times,serif" font-size="14.00" fill="#000000">PBHE 375</text>
<text text-anchor="middle" x="509.937" y="-373.3095" font-family="Times,serif" font-size="14.00" fill="#000000">C</text>
</g>
<!-- PBHE 375&#45;&gt;PBHE 490 -->
<g id="edge17" class="edge">
<title>PBHE 375-&gt;PBHE 490</title>
<path fill="none" stroke="#000000" d="M550.3404,-366.316C557.7968,-362.9086 565.5583,-359.4982 572.937,-356.4939 616.215,-338.8724 666.225,-321.5305 703.6326,-309.1344"/>
<polygon fill="#000000" stroke="#000000" points="704.9436,-312.3876 713.3453,-305.933 702.7523,-305.7394 704.9436,-312.3876"/>
</g>
<!-- HED 201 -->
<g id="node13" class="node">
<title>HED 201</title>
<ellipse fill="none" stroke="#000000" cx="290.937" cy="-480.7408" rx="48.9566" ry="29.3315"/>
<text text-anchor="middle" x="290.937" y="-484.9408" font-family="Times,serif" font-size="14.00" fill="#000000">HED 201</text>
<text text-anchor="middle" x="290.937" y="-468.1408" font-family="Times,serif" font-size="14.00" fill="#000000">C</text>
</g>
<!-- HED 201&#45;&gt;PBHE 410 -->
<g id="edge11" class="edge">
<title>HED 201-&gt;PBHE 410</title>
<path fill="none" stroke="#000000" stroke-dasharray="1,5" d="M282.0784,-451.773C278.3939,-439.7243 274.1335,-425.7927 270.4826,-413.8542"/>
<polygon fill="#000000" stroke="#000000" points="273.7324,-412.5125 267.461,-403.9732 267.0384,-414.5596 273.7324,-412.5125"/>
</g>
<!-- PBHE 201 -->
<g id="node14" class="node">
<title>PBHE 201</title>
<ellipse fill="none" stroke="#000000" cx="411.937" cy="-480.7408" rx="53.874" ry="29.3315"/>
<text text-anchor="middle" x="411.937" y="-484.9408" font-family="Times,serif" font-size="14.00" fill="#000000">PBHE 201</text>
<text text-anchor="middle" x="411.937" y="-468.1408" font-family="Times,serif" font-size="14.00" fill="#000000">C</text>
</g>
<!-- PBHE 201&#45;&gt;PBHE 410 -->
<g id="edge12" class="edge">
<title>PBHE 201-&gt;PBHE 410</title>
<path fill="none" stroke="#000000" stroke-dasharray="1,5" d="M376.3891,-458.2671C352.1137,-442.92 320.1297,-422.6994 296.145,-407.5361"/>
<polygon fill="#000000" stroke="#000000" points="297.6999,-404.3784 287.3771,-401.993 293.9593,-410.2951 297.6999,-404.3784"/>
</g>
<!-- PBHE 491 -->
<g id="node18" class="node">
<title>PBHE 491</title>
<ellipse fill="none" stroke="#000000" cx="639.937" cy="-196.2469" rx="53.874" ry="29.3315"/>
<text text-anchor="middle" x="639.937" y="-200.4469" font-family="Times,serif" font-size="14.00" fill="#000000">PBHE 491</text>
<text text-anchor="middle" x="639.937" y="-183.6469" font-family="Times,serif" font-size="14.00" fill="#000000">C</text>
</g>
<!-- PBHE 490&#45;&gt;PBHE 491 -->
<g id="edge19" class="edge">
<title>PBHE 490-&gt;PBHE 491</title>
<path fill="none" stroke="#000000" stroke-dasharray="1,5" d="M729.034,-266.6568C713.777,-254.5998 695.2081,-239.9255 678.9789,-227.1002"/>
<polygon fill="#000000" stroke="#000000" points="680.7512,-224.0398 670.7352,-220.5856 676.411,-229.5319 680.7512,-224.0398"/>
</g>
<!-- PBHE 495 -->
<g id="node19" class="node">
<title>PBHE 495</title>
<ellipse fill="none" stroke="#000000" cx="880.937" cy="-196.2469" rx="52.7312" ry="18"/>
<text text-anchor="middle" x="880.937" y="-192.0469" font-family="Times,serif" font-size="14.00" fill="#000000">PBHE 495</text>
</g>
<!-- PBHE 490&#45;&gt;PBHE 495 -->
<g id="edge20" class="edge">
<title>PBHE 490-&gt;PBHE 495</title>
<path fill="none" stroke="#000000" stroke-dasharray="1,5" d="M790.7835,-266.9029C809.4849,-252.2461 833.2085,-233.6531 851.6252,-219.2194"/>
<polygon fill="#000000" stroke="#000000" points="853.9646,-221.8328 859.6764,-212.9095 849.6466,-216.3233 853.9646,-221.8328"/>
</g>
<!-- PBHE 498 -->
<g id="node20" class="node">
<title>PBHE 498</title>
<ellipse fill="none" stroke="#000000" cx="699.937" cy="-101.4156" rx="53.874" ry="29.3315"/>
<text text-anchor="middle" x="699.937" y="-105.6156" font-family="Times,serif" font-size="14.00" fill="#000000">PBHE 498</text>
<text text-anchor="middle" x="699.937" y="-88.8156" font-family="Times,serif" font-size="14.00" fill="#000000">C</text>
</g>
<!-- PBHE 491&#45;&gt;PBHE 498 -->
<g id="edge22" class="edge">
<title>PBHE 491-&gt;PBHE 498</title>
<path fill="none" stroke="#000000" stroke-dasharray="1,5" d="M657.6144,-168.3073C663.6032,-158.8419 670.385,-148.1231 676.7374,-138.0831"/>
<polygon fill="#000000" stroke="#000000" points="679.7895,-139.8052 682.1785,-129.4832 673.8741,-136.0625 679.7895,-139.8052"/>
</g>
<!-- PBHE 499 -->
<g id="node22" class="node">
<title>PBHE 499</title>
<ellipse fill="none" stroke="#000000" cx="759.937" cy="-18" rx="52.7312" ry="18"/>
<text text-anchor="middle" x="759.937" y="-13.8" font-family="Times,serif" font-size="14.00" fill="#000000">PBHE 499</text>
</g>
<!-- PBHE 498&#45;&gt;PBHE 499 -->
<g id="edge24" class="edge">
<title>PBHE 498-&gt;PBHE 499</title>
<path fill="none" stroke="#000000" stroke-dasharray="1,5" d="M719.9161,-73.6394C726.8065,-64.06 734.4938,-53.3727 741.2748,-43.9452"/>
<polygon fill="#000000" stroke="#000000" points="744.2008,-45.8713 747.1988,-35.7094 738.5181,-41.7838 744.2008,-45.8713"/>
</g>
<!-- HED 491 -->
<g id="node21" class="node">
<title>HED 491</title>
<ellipse fill="none" stroke="#000000" cx="760.937" cy="-196.2469" rx="48.9566" ry="29.3315"/>
<text text-anchor="middle" x="760.937" y="-200.4469" font-family="Times,serif" font-size="14.00" fill="#000000">HED 491</text>
<text text-anchor="middle" x="760.937" y="-183.6469" font-family="Times,serif" font-size="14.00" fill="#000000">C</text>
</g>
<!-- HED 491&#45;&gt;PBHE 498 -->
<g id="edge21" class="edge">
<title>HED 491-&gt;PBHE 498</title>
<path fill="none" stroke="#000000" d="M743.1293,-168.5629C736.9824,-159.0068 729.9983,-148.1494 723.4652,-137.9929"/>
<polygon fill="#000000" stroke="#000000" points="726.226,-135.8151 717.8724,-129.2983 720.3388,-139.6021 726.226,-135.8151"/>
</g>
<!-- HED 498 -->
<g id="node23" class="node">
<title>HED 498</title>
<ellipse fill="none" stroke="#000000" cx="820.937" cy="-101.4156" rx="48.9566" ry="29.3315"/>
<text text-anchor="middle" x="820.937" y="-105.6156" font-family="Times,serif" font-size="14.00" fill="#000000">HED 498</text>
<text text-anchor="middle" x="820.937" y="-88.8156" font-family="Times,serif" font-size="14.00" fill="#000000">C</text>
</g>
<!-- HED 498&#45;&gt;PBHE 499 -->
<g id="edge23" class="edge">
<title>HED 498-&gt;PBHE 499</title>
<path fill="none" stroke="#000000" stroke-dasharray="1,5" d="M800.9633,-74.1022C793.887,-64.4256 785.949,-53.5706 778.9544,-44.0058"/>
<polygon fill="#000000" stroke="#000000" points="781.5759,-41.6612 772.8479,-35.6553 775.9256,-45.7932 781.5759,-41.6612"/>
</g>
</g>
</svg>